<svg xmlns="http://www.w3.org/2000/svg" width="90" height="90" viewBox="0 0 90 90">
  <g id="Group_2799" data-name="Group 2799" transform="translate(-441 -568)">
    <rect id="Rectangle_2264" data-name="Rectangle 2264" width="90" height="90" transform="translate(441 568)" fill="none"/>
    <g id="Group_2798" data-name="Group 2798" transform="translate(107 7)">
      <path id="Path_5826" data-name="Path 5826" d="M-809.915,175.957a24.271,24.271,0,0,1-12.215-21.029,24.4,24.4,0,0,1,20.623-24.044l-2.142,2.142a2.972,2.972,0,0,0,0,4.126,3.021,3.021,0,0,0,2.062.873,3.021,3.021,0,0,0,2.062-.873l7.456-7.459a2.972,2.972,0,0,0,0-4.126l-7.456-7.459a2.969,2.969,0,0,0-4.124,0,2.972,2.972,0,0,0,0,4.126l2.617,2.619A30.2,30.2,0,0,0-828,154.928a30.264,30.264,0,0,0,15.15,26.186,3.233,3.233,0,0,0,1.428.4A2.934,2.934,0,0,0-808.884,180a2.884,2.884,0,0,0-1.031-4.047Z" transform="translate(1177 450.725)" fill="#4d61fc"/>
      <path id="Path_5827" data-name="Path 5827" d="M-677.45,197.112a30.554,30.554,0,0,0-15.071-26.186,2.992,2.992,0,0,0-4.045,1.111,2.994,2.994,0,0,0,1.111,4.047,24.293,24.293,0,0,1,12.136,21.028,24.4,24.4,0,0,1-20.623,24.044l2.142-2.142a2.972,2.972,0,0,0,0-4.126,2.969,2.969,0,0,0-4.125,0l-7.456,7.459a2.972,2.972,0,0,0,0,4.126l7.456,7.459a3.021,3.021,0,0,0,2.062.873,3.021,3.021,0,0,0,2.062-.873,2.972,2.972,0,0,0,0-4.126l-2.7-2.7a30.254,30.254,0,0,0,27.048-30Z" transform="translate(1086.892 408.541)" fill="#4d61fc"/>
      <path id="Path_5828" data-name="Path 5828" d="M-740.9,259.152a2.969,2.969,0,0,0-4.125,0,2.972,2.972,0,0,0,0,4.126l7.059,7.062a3.021,3.021,0,0,0,2.062.873,3.021,3.021,0,0,0,2.062-.873l13.484-13.49a2.972,2.972,0,0,0,0-4.126,2.969,2.969,0,0,0-4.125,0l-11.5,11.427-4.918-5Z" transform="translate(1111.947 344.119)" fill="#4d61fc"/>
    </g>
  </g>
</svg>
