<svg xmlns="http://www.w3.org/2000/svg" xmlns:xlink="http://www.w3.org/1999/xlink" width="1409.528" height="186.61" viewBox="0 0 1409.528 186.61">
  <defs>
    <linearGradient id="linear-gradient" y1="0.5" x2="1" y2="0.5" gradientUnits="objectBoundingBox">
      <stop offset="0.103" stop-color="#8f331a"/>
      <stop offset="1" stop-color="#8f331a"/>
    </linearGradient>
    <linearGradient id="linear-gradient-2" x1="0.966" y1="0.877" x2="0.121" y2="0.148" gradientUnits="objectBoundingBox">
      <stop offset="0" stop-color="#8f331a"/>
      <stop offset="0.967" stop-color="#ce5417"/>
    </linearGradient>
    <linearGradient id="linear-gradient-3" x1="0.785" y1="0.578" x2="0.189" y2="-0.034" xlink:href="#linear-gradient-2"/>
    <linearGradient id="linear-gradient-4" x1="0.449" y1="0.013" x2="0.708" y2="0.832" gradientUnits="objectBoundingBox">
      <stop offset="0" stop-color="#b55529"/>
      <stop offset="0.17" stop-color="#d66521"/>
      <stop offset="0.37" stop-color="#94330f"/>
      <stop offset="0.685" stop-color="#cc570a"/>
      <stop offset="1" stop-color="#943429"/>
    </linearGradient>
    <linearGradient id="linear-gradient-5" x1="0.705" y1="0.716" x2="0.047" y2="0.022" gradientUnits="objectBoundingBox">
      <stop offset="0" stop-color="#eb7910"/>
      <stop offset="1" stop-color="#fc0"/>
    </linearGradient>
    <linearGradient id="linear-gradient-6" x1="0.287" y1="0.493" x2="1.008" y2="0.048" gradientUnits="objectBoundingBox">
      <stop offset="0" stop-color="#183873"/>
      <stop offset="1" stop-color="#007dc6"/>
    </linearGradient>
    <linearGradient id="linear-gradient-7" x1="0.7" y1="0.331" x2="0.533" y2="0.753" gradientUnits="objectBoundingBox">
      <stop offset="0" stop-color="#00659c"/>
      <stop offset="1" stop-color="#213873"/>
    </linearGradient>
    <linearGradient id="linear-gradient-8" x1="0.314" y1="0.721" x2="0.937" y2="-0.018" gradientUnits="objectBoundingBox">
      <stop offset="0" stop-color="#007dc6"/>
      <stop offset="1" stop-color="#73c7f7"/>
    </linearGradient>
    <linearGradient id="linear-gradient-9" x1="0.209" y1="0.658" x2="1.072" y2="-0.147" gradientUnits="objectBoundingBox">
      <stop offset="0" stop-color="#397539"/>
      <stop offset="1" stop-color="#63a329"/>
    </linearGradient>
    <linearGradient id="linear-gradient-10" x1="0.5" y1="0.975" x2="0.5" y2="0.155" xlink:href="#linear-gradient-9"/>
    <linearGradient id="linear-gradient-11" x1="0.498" y1="0.024" x2="0.5" y2="0.527" gradientUnits="objectBoundingBox">
      <stop offset="0" stop-color="#bddb7b"/>
      <stop offset="1" stop-color="#84c321"/>
    </linearGradient>
    <linearGradient id="linear-gradient-12" x1="0.502" y1="-0.006" x2="0.252" y2="0.602" xlink:href="#linear-gradient-11"/>
    <linearGradient id="linear-gradient-13" x1="0.379" y1="0.775" x2="0.692" y2="0.069" xlink:href="#linear-gradient-8"/>
    <linearGradient id="linear-gradient-14" x1="0.59" y1="0.721" x2="0.739" y2="0.26" xlink:href="#linear-gradient-5"/>
    <linearGradient id="linear-gradient-15" x1="0.5" y1="1" x2="0.5" gradientUnits="objectBoundingBox">
      <stop offset="0" stop-color="#636563"/>
      <stop offset="1" stop-color="#7b7d7b"/>
    </linearGradient>
    <linearGradient id="linear-gradient-27" x1="0" y1="0.5" x2="1" y2="0.5" xlink:href="#linear-gradient-15"/>
    <linearGradient id="linear-gradient-28" x1="0" y1="0.5" x2="1" y2="0.5" xlink:href="#linear-gradient-15"/>
    <linearGradient id="linear-gradient-30" x1="0" y1="0.5" x2="1" y2="0.5" xlink:href="#linear-gradient-15"/>
    <linearGradient id="linear-gradient-32" x1="0" y1="0.5" x2="1" y2="0.5" xlink:href="#linear-gradient-15"/>
    <linearGradient id="linear-gradient-37" x1="0" y1="0.5" x2="1" y2="0.5" xlink:href="#linear-gradient-15"/>
    <linearGradient id="linear-gradient-43" x1="0" y1="0.5" x2="1" y2="0.5" xlink:href="#linear-gradient-15"/>
  </defs>
  <g id="Group_62" data-name="Group 62" transform="translate(-101.103 -248.637)">
    <g id="Cube_A_" data-name="Cube &quot;A&quot;" transform="translate(101.103 283.755)">
      <g id="Group_54" data-name="Group 54">
        <path id="_3d_A_4_" data-name="3d A (4)" d="M109.911,303.84c-.029.266-.053.552-.068.86l-.031.988-.011,1.122.022,16.1,7.646-4.513-.018-15.37c-3.433-1.516-5.343-2.134-6.394-1.63l-.365.253-.29.37-.218.486-.163.605Z" transform="translate(-90.661 -220.632)" fill-rule="evenodd" fill="url(#linear-gradient)"/>
        <path id="_3d_A_3_" data-name="3d A (3)" d="M155.726,326.062l-38.263-17.035-7.657,4.509,38.271,17.038,2.084.918,1.82.757,1.578.6,1.349.42,1.14.233.951.044.775-.163.574-.339c.915-.775,1.263-2.464,1.4-5.261l-.114-.044-1.82-.759Z" transform="translate(-90.655 -211.263)" fill-rule="evenodd" fill="url(#linear-gradient-2)"/>
        <path id="_3d_A_2_" data-name="3d A (2)" d="M147.136,330.542l7.647-4.515.074-12.5,0-1.47-.035-1.33-.077-1.2-.124-1.092-.184-.984-.245-.9-.322-.815-.4-.748-.49-.691-.6-.646-.7-.613-.815-.594-.942-.583-1.072-.587-1.217-.6-1.362-.625L121.3,288.931,119.148,288l-1.92-.768-1.7-.594-1.49-.416-1.3-.231-1.116-.035-.946.162-.792.37L102.234,291l.792-.37.949-.162,1.117.035,1.3.23,1.489.416,1.7.6,1.921.768,2.151.934,24.971,11.12,1.362.626,1.217.6,1.073.588.942.582.815.593.7.615.593.647.491.692.4.748.322.815.245.9.184.986.124,1.089.077,1.206.036,1.33,0,1.47Z" transform="translate(-99.744 -238.96)" fill-rule="evenodd" fill="url(#linear-gradient-3)"/>
        <path id="_3d_A_1_" data-name="3d A (1)" d="M111.273,270.441l62.861,27.641c.445.194.876.389,1.289.585l.015,0c.4.189.794.378,1.173.568l.024.011c.389.2.768.394,1.131.59s.717.4,1.056.6.671.4.988.6.623.4.918.612.581.414.852.623.539.422.79.638.493.431.731.651.451.442.667.667.414.458.609.689.379.469.555.708.348.484.508.733.315.5.455.755.284.517.414.783.249.535.367.81.22.557.323.841.2.576.284.874l.007.013c.088.293.167.59.242.893s.15.623.218.942.123.647.183.981.108.673.154,1.019.09.7.128,1.061.073.731.1,1.107.059.759.084,1.149.046.792.064,1.2.035.823.048,1.245.022.858.029,1.3.018.891.024,1.351.009.926.011,1.406,0,.964.007,1.461v1.521l-.018,62.9,0,14.2c0,.86-.026,1.663-.07,2.407s-.114,1.443-.2,2.086a17.727,17.727,0,0,1-.332,1.778,12.37,12.37,0,0,1-.458,1.492,8.319,8.319,0,0,1-.577,1.215,5.979,5.979,0,0,1-.693.964,4.729,4.729,0,0,1-.8.726l7.646-4.513.8-.726.689-.964.579-1.217.458-1.49.334-1.778.2-2.086.073-2.405,0-6.419.018-70.681v-1.52l-.007-1.463-.011-1.406-.024-1.349-.029-1.3-.046-1.245-.066-1.2-.084-1.151-.1-1.1-.13-1.063-.154-1.021-.183-.981-.218-.942-.249-.9-.284-.874-.323-.841-.367-.812-.414-.781-.455-.757-.508-.731-.555-.708-.612-.689-.669-.667-.726-.654-.788-.638-.852-.623-.92-.612-.986-.6-1.063-.6-1.131-.59-1.208-.585-1.289-.583-62.859-27.644-1.318-.53-1.267-.4-1.215-.266-1.151-.13-1.089.007-1.017.15-.94.29-.854.436-7.4,4.366a6.222,6.222,0,0,1,.612-.288,5.7,5.7,0,0,1,.94-.29,7.019,7.019,0,0,1,1.017-.15,8.52,8.52,0,0,1,1.087,0,10.323,10.323,0,0,1,1.146.13q.594.1,1.215.266c.414.112.836.244,1.267.4S110.829,270.241,111.273,270.441Z" transform="translate(-99.216 -264.597)" fill-rule="evenodd" fill="url(#linear-gradient-4)"/>
        <path id="A" d="M139.98,327.749l-24.97-11.123c-12.131-5.4-13.73-4.042-13.77,8.775l-.117,37.253c-.024,8.4,1.3,15.951,13.361,21.251l61.631,27.1c8.357,3.675,14.331,4.436,14.333-9.292l.022-77.1c0-16.538-.284-22.759-14.45-28.988L113.16,267.987c-7.149-3.191-12.432-.836-12.036,8.489l.018,8.531,63.184,27.879a9.78,9.78,0,0,1,5.945,9.072v49.951c0,13.917.095,14.815-11.746,9.545l-38.271-17.04-.02-16.1c-.009-6.335.68-6.889,8.014-3.62l20.248,9.028.073-12.5C148.619,333,147.673,331.175,139.98,327.749Z" transform="translate(-101.103 -262.142)" fill-rule="evenodd" fill="url(#linear-gradient-5)"/>
      </g>
    </g>
    <g id="Cubu_O_" data-name="Cubu &quot;O&quot;" transform="translate(200.135 284.105)">
      <g id="Group_55" data-name="Group 55">
        <path id="_3d_O_2_" data-name="3d O (2)" d="M238.733,269.5l-7.671-4.2-.836-.294-.895-.183-.945-.065-1,.051-1.037.176-1.073.3-1.108.43L156.962,295.4l-1.1.548-1.076.65-1.038.743-1,.825-.948.9-.9.972-.836,1.032-.771,1.084-.7,1.126-.626,1.163-.544,1.188-.461,1.205-.364,1.214-.268,1.217-.165,1.21-.056,1.2v92.367l.056,1.148.165,1.064.268.98.364.892.461.8.544.709.626.606.7.507,7.671,4.2-.7-.507-.626-.606-.543-.7-.458-.8-.366-.892-.27-.98-.165-1.064-.056-1.145V315.883l.056-1.195.165-1.211.27-1.217.366-1.214.458-1.206.543-1.188.626-1.16.7-1.128.774-1.083.834-1.033.895-.972.949-.9,1-.826,1.037-.743,1.076-.65,1.1-.547,67.21-29.689,1.105-.429,1.072-.3,1.04-.174,1-.054.945.067.9.184Z" transform="translate(-146.109 -264.756)" fill-rule="evenodd" fill="url(#linear-gradient-6)"/>
        <path id="_3d_O_1_" data-name="3d O (1)" d="M203.745,282.445l-.124-1.415-.354-1.213-.562-1-.741-.754-.9-.5,7.67,4.2.9.5.741.755.561.995.355,1.215.125,1.415V345.5l-.032.758-.092.769-.151.765-.2.761-.254.752-.307.739-.349.718-.392.692-.432.666-.467.627-.5.589-.532.544-.556.492-.579.438-.6.374-.616.314-37.567,16.593-1.217.389-1.135.075-1.034-.224-.9-.5-6.757-3.7-.916-.5.9.5.018,0,1.013.219,1.138-.077,1.217-.387,37.564-16.6.618-.312.6-.374.579-.438.555-.492.53-.546.5-.587.464-.628.434-.666.393-.692.348-.718.305-.739.257-.752.206-.761.148-.769.091-.765.032-.758Z" transform="translate(-134.441 -249.376)" fill-rule="evenodd" fill="url(#linear-gradient-7)"/>
        <path id="O" d="M227.658,267.623,160.447,297.31c-5.967,2.638-10.852,9.961-10.852,16.279v92.37c0,6.315,4.885,9.328,10.852,6.689l67.211-29.688c5.967-2.638,10.85-9.963,10.85-16.281V274.312c0-6.315-4.883-9.327-10.85-6.689ZM212.837,295.1c3.334-1.474,6.064.612,6.064,4.636v58.847c0,4.025-2.731,8.524-6.064,10l-37.567,16.593c-3.334,1.474-6.062-.614-6.062-4.636V321.689c0-4.025,2.729-8.524,6.062-10Z" transform="translate(-141.925 -262.462)" fill-rule="evenodd" fill="url(#linear-gradient-8)"/>
      </g>
    </g>
    <g id="Cube_T_" data-name="Cube &quot;T&quot;" transform="translate(122.755 248.637)">
      <g id="Group_56" data-name="Group 56">
        <path id="_3d_T_3_" data-name="3d T (3)" d="M140.692,282.513l.035-7.925.856.458.819.43.78.4.741.375.709.346.683.316.653.29.626.26.608.231.587.2.571.173.556.143.55.114.537.084.532.055.527.023.532-.007.529-.035.538-.068.544-.1.552-.129.57-.16.585-.191.6-.225.624-.256.65-.287.674-.317.7-.35.739-.382.774-.417.81-.449.848-.481-.039,7.925-.851.481-.807.449-.774.415-.736.383-.7.351-.677.319-.648.285-.626.256-.6.223-.584.191-.567.16-.556.13-.544.1-.538.068-.532.036-.525.008-.532-.025-.532-.055-.538-.084-.543-.114-.556-.142-.573-.173-.589-.2-.6-.231-.63-.261-.653-.288-.68-.317-.709-.346-.745-.374-.78-.4-.815-.43Z" transform="translate(-75.232 -217.485)" fill="#397539" fill-rule="evenodd"/>
        <path id="_3d_T_2_" data-name="3d T (2)" d="M176.444,265.614l-35.862,13.007c-5.734,2.053-10.918,2.643-15.759.48l-13.88-6.194.035-6.969,14.107,5.446c6,2.313,7.937,2.079,14.155-.176l37.206-13.5Z" transform="translate(-110.943 -237.753)" fill-rule="evenodd" fill="url(#linear-gradient-9)"/>
        <path id="_3d_T_1_" data-name="3d T (1)" d="M184.054,278.915,150.06,265.737l.042-7.924,34.559,13.4c5.6,2.095,9.607,1.685,15.482.6L214.7,266.1l.015,7.242-12.881,5.536C195.61,281.555,191.617,281.848,184.054,278.915Z" transform="translate(-63.987 -237.622)" fill-rule="evenodd" fill="url(#linear-gradient-10)"/>
        <path id="T" d="M197.03,305.788c-9.292,5.31-11.235,4.984-20.611-.048l.009-37.149L140.6,281.579c-7.123,2.709-9.03,3.2-14.822.964l-14.822-5.721,60.964-24.174c13.97-5.541,15-5.252,28.995.315l60.718,24.154-13.77,5.519c-6.467,2.592-9.369,2.337-16.268-.409l-34.559-13.4Z" transform="translate(-110.924 -248.637)" fill-rule="evenodd" fill="url(#linear-gradient-11)"/>
      </g>
    </g>
    <g id="AOT" transform="translate(334.451 283.086)">
      <g id="T-2" data-name="T" transform="translate(184.519 1.416)">
        <g id="Group_57" data-name="Group 57">
          <path id="Path_31" data-name="Path 31" d="M291.008,274.066v-9.129h49.553l-.623.862-6.9,9.509-.164.225H319.593v71.136H308.635V275.531H291.008v-1.466Z" transform="translate(-291.008 -264.936)" fill="#84c321" fill-rule="evenodd"/>
          <path id="Letter_T" data-name="Letter T" d="M337.849,265.452H291.5v8.426h17.63v71.133h8.789V273.877h13.818Z" transform="translate(-290.419 -264.318)" fill-rule="evenodd" fill="url(#linear-gradient-12)"/>
        </g>
      </g>
      <g id="O-2" data-name="O" transform="translate(86.353)">
        <g id="Group_58" data-name="Group 58">
          <path id="Shadow_O_" data-name="Shadow &apos;O&apos;" d="M247.653,317.969c-.163-.676-.312-1.349-.438-2-5.1-26.5,14.219-50.882,40.228-51.648.475,0,.951-.024,1.426-.024,13.075,0,25.179,5.023,33.794,15.425,21.084,25.456,5.868,65.363-26.627,69.814-.693.095-1.408.178-2.134.246s-1.437.112-2.165.145c-.755.033-1.5.048-2.225.048s-1.5-.015-2.26-.048q-1.1-.05-2.189-.141c-.733-.068-1.45-.152-2.15-.246-16.747-2.277-31.239-15.079-35.259-31.567Zm11.2-1.01c.143.493.3.984.466,1.461a31.871,31.871,0,0,0,26.722,20.818q1.558.142,3.208.141c.733,0,1.454-.024,2.154-.066h0c.645-.04,1.3-.1,1.95-.176h0l.046-.007.057-.007.068-.009h.018A31.4,31.4,0,0,0,321,311.507h0c.04-.348.079-.706.112-1.072h0c.031-.346.059-.72.081-1.116s.042-.759.053-1.111v0c.007-.323.013-.693.013-1.094s-.007-.774-.013-1.1h0c-.011-.359-.031-.733-.053-1.12a32.149,32.149,0,0,0-29.829-29.877h-.035c-.374-.026-.728-.044-1.061-.055-.306-.011-.649-.018-1.019-.018s-.713.007-1.014.015c-.323.013-.671.029-1.034.053C267.263,276.349,252.967,296.786,258.855,316.959Z" transform="translate(-246.395 -264.293)" fill="#007dc6"/>
          <path id="Letter_O" data-name="Letter O" d="M276.272,266.525Zm-14.32,7.7Zm-5.743,58.841Zm14.573,11.409Zm47.548-8.181Zm-17.379-69.812a45.308,45.308,0,0,0-23.465-.3l-1.215.343-5.048,1.912a41.891,41.891,0,0,0-9.272,5.794c-11.845,9.726-17.165,25.945-14.278,40.941a39.007,39.007,0,0,0,8.537,17.9l7.644,7.257,6.929,4.148a44.551,44.551,0,0,0,32.385,1.492l5.494-2.42,6.711-4.55,2.955-2.7,1.969-2.062,5.763-8.256.748-1.505q.4-.845.753-1.71l.011-.031a44.481,44.481,0,0,0,2.306-24.671,41.227,41.227,0,0,0-28.929-31.571Zm-18.56,7.4Zm17.236,1.272Zm21.956,34.782Zm-1.034,5.879Zm-2.843,7.142Zm-7.017,8.78Zm-40.421,2.6Zm-11.909-14.419Zm13.915-42.144,3.941-1.974,2-.775,1.006-.332,3.171-.81a32.83,32.83,0,0,1,16.866,1.144l.37.13.636.238c14.446,5.393,22.695,19.227,21.322,34.544l-1.036,5.879-.863,2.731-1.976,4.416-1.454,2.577-.086-.044-2.456,3.217-1.457,1.567-1.569,1.463-7.215,4.757-8.24,2.753a34.648,34.648,0,0,1-17.682-1.2l-5.692-2.693-1.591-1.028a35.41,35.41,0,0,1-8.989-9.046l-2.927-5.376C251.978,304.556,257.831,286.161,272.274,277.769Z" transform="translate(-245.787 -263.708)" fill-rule="evenodd" fill="url(#linear-gradient-13)"/>
        </g>
      </g>
      <g id="A-2" data-name="A" transform="translate(0 0.513)">
        <g id="Group_59" data-name="Group 59">
          <path id="Shadow_A_" data-name="Shadow &apos;A&apos;" d="M291.508,348.361H279.251c-4.434-9.114-9.16-18.1-13.607-27.164H233.281c-4.46,8.894-8.916,17.982-13.548,27.164H207.151c14.393-28.216,28.506-55.921,42.437-83.835,13.5,27.806,28.125,55.745,41.92,83.835Zm-53.093-38.206h21.947l-10.907-23.049C245.783,294.762,241.805,302.377,238.414,310.156Z" transform="translate(-207.151 -264.526)" fill="#eb7910" fill-rule="evenodd"/>
          <path id="Letter_A" data-name="Letter A" d="M248.612,265.679l-40.386,79.643-.251.539h10.071L231.612,318.7h33.761l.728,1.454,12.749,25.417.143.293h9.768l-.295-.636-39.854-79.547Zm-12.168,42.578Zm.992-2.077,11.055-23.073,12.692,26.821h-25.54l.8-1.67Z" transform="translate(-206.162 -263.142)" fill-rule="evenodd" fill="url(#linear-gradient-14)"/>
        </g>
      </g>
    </g>
    <g id="Technologies" transform="translate(621.26 282.455)">
      <g id="Group_60" data-name="Group 60">
        <path id="S" d="M718.972,332.8l7.25-4.168q7.664,13.526,17.7,13.53a17.414,17.414,0,0,0,8.067-1.923,13.8,13.8,0,0,0,5.745-5.153,12.877,12.877,0,0,0,1.976-6.854,13.526,13.526,0,0,0-2.909-8.086Q752.788,314.69,742.182,307q-10.664-7.766-13.291-11.211a20,20,0,0,1-4.515-12.54,18.4,18.4,0,0,1,2.658-9.763,18.844,18.844,0,0,1,7.523-6.944,22.3,22.3,0,0,1,10.52-2.53,23.019,23.019,0,0,1,11.286,2.872c3.507,1.906,7.211,5.446,11.114,10.562l-6.955,5.081c-3.208-4.091-5.961-6.793-8.216-8.089a14.689,14.689,0,0,0-7.389-1.961,12,12,0,0,0-8.456,3.028,9.653,9.653,0,0,0-3.268,7.4,12.238,12.238,0,0,0,1.149,5.2,19.85,19.85,0,0,0,4.238,5.461c1.127,1.025,4.808,3.765,11.031,8.181q11.084,7.882,15.214,14.008a22,22,0,0,1,4.119,12.309q0,8.935-7.052,15.511a24.284,24.284,0,0,1-17.15,6.566,25.83,25.83,0,0,1-14.1-3.978Q724.306,342.159,718.972,332.8Z" transform="translate(120.428 -264.006)" fill="url(#linear-gradient-15)"/>
        <path id="E" d="M364.449,264.94h48.918v8.088H372.982V298.68H413.03v8.03H372.982v32.157H413.03v8.088H364.449Z" transform="translate(-305.139 -262.885)" fill="url(#linear-gradient-15)"/>
        <rect id="I" width="8.537" height="82.016" transform="translate(752.549 2.054)" fill="url(#linear-gradient-15)"/>
        <path id="G" d="M717.27,279.84l-6.616,6.011A50.985,50.985,0,0,0,695,275.633a43.492,43.492,0,0,0-16.558-3.481,40.844,40.844,0,0,0-19.132,4.735,35.286,35.286,0,0,0-14.065,12.848,32.2,32.2,0,0,0-4.988,17.143,32.83,32.83,0,0,0,5.167,17.583,36.259,36.259,0,0,0,14.263,13.112,42.414,42.414,0,0,0,19.966,4.757q13.186,0,22.283-7.136a27.92,27.92,0,0,0,10.789-18.5h-27.21v-7.915h36.8q-.122,19-11.768,30.178-11.618,11.192-31.138,11.171-23.646,0-37.471-15.493a40.184,40.184,0,0,1-10.619-27.591,41.094,41.094,0,0,1,6.082-21.692,42.872,42.872,0,0,1,16.716-15.7,50.36,50.36,0,0,1,24.026-5.651,55.248,55.248,0,0,1,20.422,3.769A61.211,61.211,0,0,1,717.27,279.84Z" transform="translate(15.217 -264.006)" fill="url(#linear-gradient-15)"/>
        <path id="O-3" data-name="O" d="M628.716,264.006q19.374,0,32.443,12.426a42.37,42.37,0,0,1,.022,61.158q-13.014,12.559-31.771,12.544-18.955,0-32.027-12.487a40.291,40.291,0,0,1-13.053-30.216,43.031,43.031,0,0,1,22.162-37.717,45.063,45.063,0,0,1,22.224-5.708Zm.416,8.031a36.275,36.275,0,0,0-17.946,4.737,35.015,35.015,0,0,0-13.229,12.767,34.485,34.485,0,0,0-4.751,17.889,32.8,32.8,0,0,0,10.533,24.682,35.459,35.459,0,0,0,25.393,10.047,37.623,37.623,0,0,0,18.362-4.625,33.787,33.787,0,0,0,13.167-12.655,34.5,34.5,0,0,0,4.735-17.83,33.738,33.738,0,0,0-4.735-17.658,34.612,34.612,0,0,0-13.306-12.617A37.184,37.184,0,0,0,629.132,272.037Z" transform="translate(-41.195 -264.006)" fill="url(#linear-gradient-15)"/>
        <path id="L" d="M561.07,264.94h8.6v74.1h32.78v7.916H561.07Z" transform="translate(-69.116 -262.885)" fill="url(#linear-gradient-15)"/>
        <path id="O-4" data-name="O" d="M556.832,264.006q19.375,0,32.445,12.426a42.362,42.362,0,0,1,.02,61.158q-13.011,12.559-31.769,12.544-18.959,0-32.027-12.487a40.3,40.3,0,0,1-13.055-30.216,43.051,43.051,0,0,1,22.165-37.717,45.049,45.049,0,0,1,22.222-5.708Zm.418,8.031a36.269,36.269,0,0,0-17.946,4.737,34.984,34.984,0,0,0-13.229,12.767,34.466,34.466,0,0,0-4.753,17.889,32.791,32.791,0,0,0,10.538,24.682,35.45,35.45,0,0,0,25.39,10.047,37.609,37.609,0,0,0,18.36-4.625,33.809,33.809,0,0,0,13.17-12.655,34.524,34.524,0,0,0,4.733-17.83,33.758,33.758,0,0,0-4.733-17.658,34.619,34.619,0,0,0-13.308-12.617A37.175,37.175,0,0,0,557.25,272.037Z" transform="translate(-127.485 -264.006)" fill="url(#linear-gradient-15)"/>
        <path id="N" d="M474.209,346.956V264.94h1.861l56.75,62.78V264.94h8.417v82.016h-1.923l-56.267-62v62Z" transform="translate(-173.384 -262.885)" fill="url(#linear-gradient-15)"/>
        <path id="H" d="M437.241,264.94h8.576v34.407h43.417V264.94h8.576v82.016h-8.576V307.378H445.817v39.578h-8.576Z" transform="translate(-217.76 -262.885)" fill="url(#linear-gradient-15)"/>
        <path id="C" d="M475.031,281.283l-6.735,4.969a36.375,36.375,0,0,0-13.37-10.562,40.469,40.469,0,0,0-17.154-3.6,39.1,39.1,0,0,0-18.912,4.7,34.612,34.612,0,0,0-13.488,12.657,34.046,34.046,0,0,0-4.792,17.872,32.876,32.876,0,0,0,10.714,25.038q10.694,10.024,27.014,10.029A38.59,38.59,0,0,0,468.3,328.9l6.735,4.911A42.925,42.925,0,0,1,459.1,345.872a51.519,51.519,0,0,1-21.333,4.262q-22.4,0-35.334-14.329-10.842-12.077-10.85-29.212A39.807,39.807,0,0,1,404.735,276.3q13.136-12.3,32.918-12.294a50,50,0,0,1,21.59,4.548A41.558,41.558,0,0,1,475.031,281.283Z" transform="translate(-272.562 -264.006)" fill="url(#linear-gradient-15)"/>
        <path id="E-2" data-name="E" d="M692.282,264.94H741.2v8.088H700.82V298.68h40.05v8.03H700.82v32.157h40.05v8.088H692.282Z" transform="translate(88.39 -262.885)" fill="url(#linear-gradient-15)"/>
        <path id="T-3" data-name="T" d="M383.035,273.552v-8.626H382.2v0l-37.892-.015-6.814,9.469,15.673.013v0h2.1v72.376H365.1V274.386h17.936Z" transform="translate(-337.495 -262.924)" fill-rule="evenodd" fill="url(#linear-gradient-15)"/>
      </g>
    </g>
    <g id="New_Tag_Line" data-name="New Tag Line" transform="translate(379.256 391.828)">
      <g id="Group_61" data-name="Group 61">
        <path id="Path_32" data-name="Path 32" d="M227.513,314.073h3.16v31.611h-3.16Z" transform="translate(-227.513 -313.279)" fill="url(#linear-gradient-27)"/>
        <path id="Path_33" data-name="Path 33" d="M243.249,345.684V314.073h.689L264.973,338.3V314.073h3.118v31.611h-.711l-20.864-23.936v23.936Z" transform="translate(-208.624 -313.279)" fill="url(#linear-gradient-28)"/>
        <path id="Path_34" data-name="Path 34" d="M267.609,317.169v-3.1h17.319v3.1H277.88v28.515h-3.224V317.169Z" transform="translate(-179.382 -313.279)" fill="url(#linear-gradient-28)"/>
        <path id="Path_35" data-name="Path 35" d="M288.56,314.073h18.114v3.1H291.72v9.9h14.826v3.1H291.72v12.419h14.826v3.1H288.56Z" transform="translate(-154.232 -313.279)" fill="url(#linear-gradient-30)"/>
        <path id="Path_36" data-name="Path 36" d="M341.491,319.814l-2.449,2.321a18.7,18.7,0,0,0-5.791-3.943,15.566,15.566,0,0,0-6.135-1.342,14.617,14.617,0,0,0-7.081,1.826,13.272,13.272,0,0,0-5.211,4.953,12.781,12.781,0,0,0-1.848,6.608,13.06,13.06,0,0,0,1.912,6.779,13.611,13.611,0,0,0,5.287,5.05,15.22,15.22,0,0,0,7.391,1.837,12.638,12.638,0,0,0,8.251-2.751,10.857,10.857,0,0,0,4-7.136H329.739v-3.05h13.623q-.043,7.324-4.352,11.636t-11.528,4.308q-8.766,0-13.88-5.974a15.879,15.879,0,0,1-3.934-10.637,16.3,16.3,0,0,1,2.258-8.359,16.04,16.04,0,0,1,6.188-6.049,18.027,18.027,0,0,1,8.9-2.181,19.8,19.8,0,0,1,7.565,1.45A22.634,22.634,0,0,1,341.491,319.814Z" transform="translate(-128.896 -313.712)" fill="url(#linear-gradient-28)"/>
        <path id="Path_37" data-name="Path 37" d="M338.792,314.073h6.3a38.2,38.2,0,0,1,7.134.431,8.153,8.153,0,0,1,4.577,2.764,7.89,7.89,0,0,1,1.763,5.219,8.437,8.437,0,0,1-1.215,4.539,7.581,7.581,0,0,1-3.47,2.957,15.976,15.976,0,0,1-6.232,1.023l11.367,14.677h-3.908l-11.369-14.677h-1.785v14.677h-3.16Zm3.16,3.1v10.742l5.446.044a13.479,13.479,0,0,0,4.68-.6,4.851,4.851,0,0,0,2.368-1.923,5.329,5.329,0,0,0,.849-2.953,5.122,5.122,0,0,0-.86-2.891,4.8,4.8,0,0,0-2.26-1.859,13.752,13.752,0,0,0-4.649-.557Z" transform="translate(-93.934 -313.279)" fill="url(#linear-gradient-32)"/>
        <path id="Path_38" data-name="Path 38" d="M376.292,314.073l14.74,31.611h-3.411l-4.971-10.4H369.032l-4.924,10.4h-3.525l14.936-31.611Zm-.4,6.716-5.413,11.442h10.806Z" transform="translate(-67.776 -313.279)" fill="url(#linear-gradient-28)"/>
        <path id="Path_39" data-name="Path 39" d="M386.222,317.169v-3.1h17.319v3.1h-7.048v28.515H393.27V317.169Z" transform="translate(-36.999 -313.279)" fill="url(#linear-gradient-28)"/>
        <path id="Path_40" data-name="Path 40" d="M407.173,314.073h18.116v3.1H410.333v9.9h14.826v3.1H410.333v12.419h14.826v3.1H407.173Z" transform="translate(-11.85 -313.279)" fill="url(#linear-gradient-28)"/>
        <path id="Path_41" data-name="Path 41" d="M428.886,345.684V314.073h6.555q7.09,0,10.291,1.14a13.75,13.75,0,0,1,7.189,5.587,16.984,16.984,0,0,1,2.59,9.477,16.609,16.609,0,0,1-2.053,8.357,13.142,13.142,0,0,1-5.329,5.329q-3.278,1.72-9.187,1.721Zm3.03-2.988h3.653q6.555,0,9.09-.816a10.471,10.471,0,0,0,5.609-4.174,12.871,12.871,0,0,0,2.042-7.376,13.522,13.522,0,0,0-2.214-7.816,11.145,11.145,0,0,0-6.168-4.443q-2.964-.9-9.776-.9h-2.236Z" transform="translate(14.214 -313.279)" fill="url(#linear-gradient-28)"/>
        <path id="Path_42" data-name="Path 42" d="M471.1,314.073h3.16v31.611H471.1Z" transform="translate(64.889 -313.279)" fill="url(#linear-gradient-37)"/>
        <path id="Path_43" data-name="Path 43" d="M486.837,345.684V314.073h.689L508.562,338.3V314.073h3.116v31.611h-.708L490.1,321.748v23.936Z" transform="translate(83.779 -313.279)" fill="url(#linear-gradient-28)"/>
        <path id="Path_44" data-name="Path 44" d="M511.2,317.169v-3.1h17.319v3.1h-7.048v28.515h-3.224V317.169Z" transform="translate(113.02 -313.279)" fill="url(#linear-gradient-28)"/>
        <path id="Path_45" data-name="Path 45" d="M532.148,314.073h18.114v3.1H535.306v9.9h14.828v3.1H535.306v12.419h14.828v3.1H532.148Z" transform="translate(138.17 -313.279)" fill="url(#linear-gradient-28)"/>
        <path id="Path_46" data-name="Path 46" d="M553.861,314.073h3.158v28.559h12.164v3.052H553.861Z" transform="translate(164.234 -313.279)" fill="url(#linear-gradient-28)"/>
        <path id="Path_47" data-name="Path 47" d="M574.1,314.073h3.16v28.559H589.42v3.052H574.1Z" transform="translate(188.527 -313.279)" fill="url(#linear-gradient-28)"/>
        <path id="Path_48" data-name="Path 48" d="M594.132,314.073h3.16v31.611h-3.16Z" transform="translate(212.575 -313.279)" fill="url(#linear-gradient-43)"/>
        <path id="Path_49" data-name="Path 49" d="M641.077,319.814l-2.449,2.321a18.7,18.7,0,0,0-5.792-3.943,15.573,15.573,0,0,0-6.135-1.342,14.616,14.616,0,0,0-7.081,1.826,13.286,13.286,0,0,0-5.211,4.953,12.8,12.8,0,0,0-1.848,6.608,13.06,13.06,0,0,0,1.912,6.779,13.6,13.6,0,0,0,5.288,5.05,15.213,15.213,0,0,0,7.391,1.837,12.638,12.638,0,0,0,8.251-2.751,10.849,10.849,0,0,0,4-7.136h-10.08v-3.05h13.625q-.043,7.324-4.352,11.636t-11.528,4.308q-8.766,0-13.882-5.974a15.888,15.888,0,0,1-3.932-10.637,16.3,16.3,0,0,1,2.258-8.359,16.041,16.041,0,0,1,6.188-6.049,18.028,18.028,0,0,1,8.9-2.181,19.809,19.809,0,0,1,7.565,1.45A22.635,22.635,0,0,1,641.077,319.814Z" transform="translate(230.726 -313.712)" fill="url(#linear-gradient-28)"/>
        <path id="Path_50" data-name="Path 50" d="M638.31,314.073h18.114v3.1H641.47v9.9H656.3v3.1H641.47v12.419H656.3v3.1H638.31Z" transform="translate(265.606 -313.279)" fill="url(#linear-gradient-30)"/>
        <path id="Path_51" data-name="Path 51" d="M660.033,345.684V314.073h.686L681.758,338.3V314.073h3.116v31.611h-.711L663.3,321.748v23.936Z" transform="translate(291.682 -313.279)" fill="url(#linear-gradient-28)"/>
        <path id="Path_52" data-name="Path 52" d="M716.054,320.373l-2.493,1.912a13.638,13.638,0,0,0-4.953-4.071,14.5,14.5,0,0,0-6.35-1.386,14.033,14.033,0,0,0-7,1.815,13.021,13.021,0,0,0-5,4.878,13.5,13.5,0,0,0-1.774,6.887,12.933,12.933,0,0,0,3.965,9.649,13.748,13.748,0,0,0,10,3.866,14.071,14.071,0,0,0,11.11-5.2l2.493,1.892a15.938,15.938,0,0,1-5.9,4.652,18.512,18.512,0,0,1-7.9,1.644q-8.294,0-13.086-5.523a16.657,16.657,0,0,1-4.018-11.259,15.657,15.657,0,0,1,4.867-11.68,16.783,16.783,0,0,1,12.195-4.737,17.914,17.914,0,0,1,7.992,1.752A15.5,15.5,0,0,1,716.054,320.373Z" transform="translate(321.838 -313.712)" fill="url(#linear-gradient-28)"/>
        <path id="Path_53" data-name="Path 53" d="M713.087,314.073H731.2v3.1H716.247v9.9h14.826v3.1H716.247v12.419h14.826v3.1H713.087Z" transform="translate(355.368 -313.279)" fill="url(#linear-gradient-28)"/>
      </g>
    </g>
  </g>
</svg>
