<svg xmlns="http://www.w3.org/2000/svg" xmlns:xlink="http://www.w3.org/1999/xlink" width="227.836" height="183.96" viewBox="0 0 227.836 183.96">
  <defs>
    <linearGradient id="linear-gradient" y1="0.5" x2="1" y2="0.5" gradientUnits="objectBoundingBox">
      <stop offset="0.103" stop-color="#8f331a"/>
      <stop offset="1" stop-color="#8f331a"/>
    </linearGradient>
    <linearGradient id="linear-gradient-2" x1="0.966" y1="0.877" x2="0.121" y2="0.148" gradientUnits="objectBoundingBox">
      <stop offset="0" stop-color="#8f331a"/>
      <stop offset="0.967" stop-color="#ce5417"/>
    </linearGradient>
    <linearGradient id="linear-gradient-3" x1="0.785" y1="0.578" x2="0.189" y2="-0.034" xlink:href="#linear-gradient-2"/>
    <linearGradient id="linear-gradient-4" x1="0.449" y1="0.013" x2="0.708" y2="0.832" gradientUnits="objectBoundingBox">
      <stop offset="0" stop-color="#b55529"/>
      <stop offset="0.17" stop-color="#d66521"/>
      <stop offset="0.37" stop-color="#94330f"/>
      <stop offset="0.685" stop-color="#cc570a"/>
      <stop offset="1" stop-color="#943429"/>
    </linearGradient>
    <linearGradient id="linear-gradient-5" x1="0.705" y1="0.716" x2="0.047" y2="0.022" gradientUnits="objectBoundingBox">
      <stop offset="0" stop-color="#eb7910"/>
      <stop offset="1" stop-color="#fc0"/>
    </linearGradient>
    <linearGradient id="linear-gradient-6" x1="0.287" y1="0.493" x2="1.008" y2="0.048" gradientUnits="objectBoundingBox">
      <stop offset="0" stop-color="#183873"/>
      <stop offset="1" stop-color="#007dc6"/>
    </linearGradient>
    <linearGradient id="linear-gradient-7" x1="0.7" y1="0.331" x2="0.533" y2="0.753" gradientUnits="objectBoundingBox">
      <stop offset="0" stop-color="#00659c"/>
      <stop offset="1" stop-color="#213873"/>
    </linearGradient>
    <linearGradient id="linear-gradient-8" x1="0.314" y1="0.721" x2="0.937" y2="-0.018" gradientUnits="objectBoundingBox">
      <stop offset="0" stop-color="#007dc6"/>
      <stop offset="1" stop-color="#73c7f7"/>
    </linearGradient>
    <linearGradient id="linear-gradient-9" x1="0.209" y1="0.658" x2="1.072" y2="-0.147" gradientUnits="objectBoundingBox">
      <stop offset="0" stop-color="#397539"/>
      <stop offset="1" stop-color="#63a329"/>
    </linearGradient>
    <linearGradient id="linear-gradient-10" x1="0.5" y1="0.975" x2="0.5" y2="0.155" xlink:href="#linear-gradient-9"/>
    <linearGradient id="linear-gradient-11" x1="0.498" y1="0.024" x2="0.5" y2="0.527" gradientUnits="objectBoundingBox">
      <stop offset="0" stop-color="#bddb7b"/>
      <stop offset="1" stop-color="#84c321"/>
    </linearGradient>
    <linearGradient id="linear-gradient-12" x1="0.502" y1="-0.006" x2="0.252" y2="0.602" xlink:href="#linear-gradient-11"/>
    <linearGradient id="linear-gradient-13" x1="0.379" y1="0.775" x2="0.692" y2="0.069" xlink:href="#linear-gradient-8"/>
    <linearGradient id="linear-gradient-14" x1="0.59" y1="0.721" x2="0.739" y2="0.26" xlink:href="#linear-gradient-5"/>
    <linearGradient id="linear-gradient-15" x1="0.5" y1="1" x2="0.5" gradientUnits="objectBoundingBox">
      <stop offset="0" stop-color="#636563"/>
      <stop offset="1" stop-color="#7b7d7b"/>
    </linearGradient>
  </defs>
  <g id="Group_53" data-name="Group 53" transform="translate(-417 -384)">
    <g id="Group_52" data-name="Group 52" transform="translate(452 384)">
      <g id="Cube_A_" data-name="Cube &quot;A&quot;" transform="translate(0 28.356)">
        <g id="Group_44" data-name="Group 44" transform="translate(0 0)">
          <path id="_3d_A_4_" data-name="3d A (4)" d="M109.89,303.336c-.023.215-.043.446-.055.695l-.025.8-.009.906.018,13,6.174-3.644-.014-12.41c-2.772-1.224-4.314-1.723-5.163-1.317l-.295.2-.235.3-.176.393-.131.489Z" transform="translate(-94.346 -236.149)" fill-rule="evenodd" fill="url(#linear-gradient)"/>
          <path id="_3d_A_3_" data-name="3d A (3)" d="M146.884,322.782l-30.9-13.755-6.183,3.64,30.9,13.757,1.683.741,1.469.611,1.274.482,1.089.339.92.188.768.036.625-.132.464-.274c.739-.625,1.02-1.99,1.128-4.248l-.092-.036-1.469-.613Z" transform="translate(-94.342 -230.088)" fill-rule="evenodd" fill="url(#linear-gradient-2)"/>
          <path id="_3d_A_2_" data-name="3d A (2)" d="M138.49,321.957l6.174-3.646.06-10.089,0-1.187-.029-1.074-.062-.972-.1-.881-.148-.795-.2-.725-.26-.658-.324-.6-.4-.558-.482-.521-.563-.5-.658-.48-.761-.471-.866-.474-.983-.484-1.1-.505-20.163-8.98-1.737-.753-1.55-.62-1.374-.48-1.2-.336-1.05-.187-.9-.029-.763.131-.639.3-6.175,3.645.639-.3.766-.131.9.029,1.047.186,1.2.336,1.374.481,1.551.62,1.737.754,20.163,8.979,1.1.506.983.483.867.475.761.47.658.479.566.5.479.522.4.559.324.6.26.658.2.724.148.8.1.88.062.973.029,1.074,0,1.187Z" transform="translate(-100.223 -248.009)" fill-rule="evenodd" fill="url(#linear-gradient-3)"/>
          <path id="_3d_A_1_" data-name="3d A (1)" d="M109.617,269.316l50.757,22.319c.359.156.707.315,1.041.473l.012,0c.327.153.641.306.947.458l.02.009c.314.16.62.318.913.476s.579.322.853.483.542.322.8.487.5.327.741.494.469.334.688.5.435.341.638.515.4.348.59.526.364.357.538.538.334.37.492.556.306.378.448.572.281.391.41.592.254.4.368.609.229.418.334.633.2.432.3.654.178.45.261.679.158.466.229.705l.005.011c.071.236.135.476.2.721s.121.5.176.76.1.522.147.792.087.544.124.823.073.567.1.856.059.59.083.894.048.613.068.927.037.64.052.968.028.664.039,1.006.018.693.023,1.048.014.72.02,1.091.007.748.009,1.135,0,.778.005,1.18v1.228l-.014,50.787,0,11.465c0,.695-.021,1.343-.057,1.944s-.092,1.166-.165,1.684a14.319,14.319,0,0,1-.268,1.436,9.989,9.989,0,0,1-.37,1.2,6.717,6.717,0,0,1-.465.981,4.825,4.825,0,0,1-.56.778,3.819,3.819,0,0,1-.643.586l6.174-3.644.645-.586.556-.778.467-.983.37-1.2.27-1.436.163-1.684.059-1.942,0-5.183.014-57.072V310.17l-.005-1.182-.009-1.135-.02-1.089-.023-1.05-.037-1.006-.053-.967-.067-.929-.082-.89-.1-.858-.124-.824-.147-.792-.176-.76-.2-.73-.229-.705-.261-.679-.3-.656-.334-.631-.368-.611-.41-.59-.448-.572-.494-.556-.54-.538-.586-.528-.636-.515-.688-.5-.743-.494-.8-.487-.858-.482-.913-.476-.975-.473-1.041-.471L115.793,265.67l-1.064-.428-1.023-.325-.981-.215-.929-.1-.879.005-.821.121-.759.234-.689.352-5.973,3.525a5.037,5.037,0,0,1,.494-.233,4.6,4.6,0,0,1,.759-.235,5.669,5.669,0,0,1,.821-.121,6.878,6.878,0,0,1,.878,0,8.343,8.343,0,0,1,.926.1q.48.08.981.215c.334.091.675.2,1.023.323S109.258,269.154,109.617,269.316Z" transform="translate(-99.882 -264.597)" fill-rule="evenodd" fill="url(#linear-gradient-4)"/>
          <path id="A" d="M132.494,315.983,112.332,307c-9.8-4.362-11.087-3.264-11.119,7.086l-.094,30.08c-.02,6.782,1.052,12.879,10.788,17.159l49.764,21.882c6.748,2.967,11.572,3.582,11.574-7.5l.018-62.253c0-13.354-.229-18.377-11.668-23.407l-50.757-22.319c-5.773-2.576-10.038-.675-9.719,6.855l.014,6.888,51.018,22.511a7.9,7.9,0,0,1,4.8,7.325V351.64c0,11.238.076,11.963-9.484,7.707l-30.9-13.759-.016-13c-.007-5.115.549-5.563,6.471-2.923l16.349,7.29.059-10.09C139.47,320.226,138.706,318.75,132.494,315.983Z" transform="translate(-101.103 -263.009)" fill-rule="evenodd" fill="url(#linear-gradient-5)"/>
        </g>
      </g>
      <g id="Cubu_O_" data-name="Cubu &quot;O&quot;" transform="translate(79.964 28.639)">
        <g id="Group_45" data-name="Group 45" transform="translate(0)">
          <path id="_3d_O_2_" data-name="3d O (2)" d="M220.9,268.588l-6.194-3.394-.675-.238-.723-.148-.763-.053-.807.042-.837.142-.867.241-.894.347L154.872,289.5l-.892.442-.868.525-.838.6-.8.666-.765.731-.723.785-.675.834-.623.875-.567.909-.506.939-.439.96-.372.973-.294.98-.217.983-.134.977-.045.966v74.582l.045.927.134.859.217.791.294.72.372.645.439.573.506.489.567.41,6.194,3.394-.568-.409-.506-.489-.439-.569-.37-.649-.3-.72-.218-.791-.134-.859-.045-.925V306.038l.045-.965.134-.978.218-.983.3-.98.37-.973.439-.959.506-.937.568-.911.625-.874.673-.834.723-.785.766-.73.8-.667.837-.6.868-.525.892-.441,54.269-23.973.893-.346.866-.242.84-.141.8-.043.763.054.725.148Z" transform="translate(-146.109 -264.756)" fill-rule="evenodd" fill="url(#linear-gradient-6)"/>
          <path id="_3d_O_1_" data-name="3d O (1)" d="M194.519,281.506l-.1-1.143-.286-.979-.454-.8-.6-.609-.725-.4,6.193,3.394.726.4.6.61.453.8.286.981.1,1.143v47.515l-.026.612-.074.621-.122.618-.165.614-.2.607-.248.6-.282.58-.317.559-.349.538-.377.507-.4.475-.429.439-.449.4-.468.354-.487.3-.5.253-30.333,13.4-.983.314-.916.061-.835-.18-.723-.4-5.456-2.988-.74-.406.725.4.015,0,.818.177.919-.062.983-.312,30.331-13.4.5-.252.487-.3.468-.354.448-.4.428-.441.405-.474.375-.507.351-.538.317-.559.281-.58.246-.6.207-.607.166-.614.12-.621.074-.618.026-.612Z" transform="translate(-138.559 -254.805)" fill-rule="evenodd" fill="url(#linear-gradient-7)"/>
          <path id="O" d="M212.628,267.439l-54.27,23.971c-4.818,2.13-8.763,8.043-8.763,13.144v74.585c0,5.1,3.944,7.531,8.763,5.4l54.27-23.971c4.818-2.13,8.761-8.045,8.761-13.146V272.84c0-5.1-3.943-7.531-8.761-5.4ZM200.66,289.624c2.692-1.19,4.9.494,4.9,3.744v47.516c0,3.25-2.2,6.883-4.9,8.072l-30.334,13.4c-2.692,1.19-4.895-.5-4.895-3.744V311.094c0-3.25,2.2-6.883,4.895-8.072Z" transform="translate(-143.402 -263.272)" fill-rule="evenodd" fill="url(#linear-gradient-8)"/>
        </g>
      </g>
      <g id="Cube_T_" data-name="Cube &quot;T&quot;" transform="translate(17.484)">
        <g id="Group_46" data-name="Group 46" transform="translate(0 0)">
          <path id="_3d_T_3_" data-name="3d T (3)" d="M140.692,280.987l.029-6.4.692.37.661.347.63.324.6.3.573.28.552.255.528.234.506.21.491.187.474.163.461.14.449.115.444.092.434.068.429.044.425.019.429-.006.427-.029.435-.055.439-.08.446-.1.461-.129.472-.154.487-.181.5-.206.525-.232.544-.256.567-.283.6-.309.625-.337.654-.363.684-.389-.031,6.4-.687.389-.652.363-.625.335-.594.31-.567.284-.547.258-.523.23-.506.206-.487.18-.472.154-.458.129-.449.105-.439.079-.435.055-.429.029-.424.006-.429-.02-.429-.044-.435-.068-.439-.092-.449-.114-.462-.14-.475-.164-.488-.186-.508-.211-.527-.232-.549-.256-.573-.279-.6-.3-.63-.324-.658-.347Z" transform="translate(-87.836 -228.48)" fill="#397539" fill-rule="evenodd"/>
          <path id="_3d_T_2_" data-name="3d T (2)" d="M163.832,264.091l-28.957,10.5c-4.63,1.658-8.816,2.134-12.725.387l-11.208-5,.028-5.627,11.391,4.4c4.843,1.867,6.409,1.679,11.43-.142l30.043-10.9Z" transform="translate(-110.943 -241.595)" fill-rule="evenodd" fill="url(#linear-gradient-9)"/>
          <path id="_3d_T_1_" data-name="3d T (1)" d="M177.508,274.852,150.06,264.211l.034-6.4L178,268.631c4.518,1.691,7.757,1.361,12.5.487l11.753-4.612.012,5.847-10.4,4.47C186.84,276.984,183.615,277.22,177.508,274.852Z" transform="translate(-80.56 -241.51)" fill-rule="evenodd" fill="url(#linear-gradient-10)"/>
          <path id="T" d="M180.457,294.784c-7.5,4.287-9.072,4.024-16.642-.039l.007-30-28.927,10.488c-5.751,2.187-7.292,2.582-11.968.778l-11.968-4.619,49.226-19.519c11.28-4.474,12.112-4.241,23.412.254l49.027,19.5L221.5,276.089c-5.222,2.093-7.565,1.887-13.135-.33L180.464,264.94Z" transform="translate(-110.931 -248.637)" fill-rule="evenodd" fill="url(#linear-gradient-11)"/>
        </g>
      </g>
    </g>
    <g id="Group_51" data-name="Group 51" transform="translate(417 551.241)">
      <g id="AOT" transform="translate(0 0.122)">
        <g id="T-2" data-name="T" transform="translate(35.743 0.274)">
          <g id="Group_47" data-name="Group 47">
            <path id="Path_30" data-name="Path 30" d="M291.008,266.7v-1.768h9.6l-.121.167-1.337,1.842-.032.044h-2.573v13.78h-2.123v-13.78h-3.414V266.7Z" transform="translate(-291.008 -264.937)" fill="#84c321" fill-rule="evenodd"/>
            <path id="Letter_T" data-name="Letter T" d="M300.478,265.452H291.5v1.632h3.415v13.779h1.7V267.084h2.677Z" transform="translate(-291.29 -265.232)" fill-rule="evenodd" fill="url(#linear-gradient-12)"/>
          </g>
        </g>
        <g id="O-2" data-name="O" transform="translate(16.727 0)">
          <g id="Group_48" data-name="Group 48">
            <path id="Shadow_O_" data-name="Shadow &apos;O&apos;" d="M246.639,274.691c-.032-.131-.061-.261-.085-.388a8.322,8.322,0,0,1,7.792-10c.092,0,.184,0,.276,0a8.3,8.3,0,0,1,1.388,16.512c-.134.018-.273.034-.413.048s-.278.022-.419.028-.29.009-.431.009-.29,0-.438-.009-.284-.015-.424-.027-.281-.029-.416-.048a8.274,8.274,0,0,1-6.83-6.115Zm2.17-.2c.028.1.058.19.09.283a6.174,6.174,0,0,0,5.176,4.033q.3.028.621.027c.142,0,.282,0,.417-.013h0c.125-.008.251-.019.378-.034h.02l.013,0h0a6.083,6.083,0,0,0,5.318-5.348h0c.008-.067.015-.137.022-.208h0c.006-.067.012-.139.016-.216s.008-.147.01-.215h0c0-.063,0-.134,0-.212s0-.15,0-.214h0c0-.069-.006-.142-.01-.217a6.228,6.228,0,0,0-5.778-5.787H255.1c-.072-.005-.141-.008-.205-.011s-.126,0-.2,0-.138,0-.2,0-.13.006-.2.01A6.341,6.341,0,0,0,248.809,274.495Z" transform="translate(-246.395 -264.293)" fill="#007dc6"/>
            <path id="Letter_O" data-name="Letter O" d="M252.592,265.118Zm-2.774,1.492Zm-1.112,11.4Zm2.823,2.21Zm9.211-1.585Zm-3.366-13.523a8.777,8.777,0,0,0-4.545-.059l-.235.066-.978.37a8.116,8.116,0,0,0-1.8,1.122,8.327,8.327,0,0,0-2.766,7.931,7.556,7.556,0,0,0,1.654,3.467l1.481,1.406,1.342.8a8.63,8.63,0,0,0,6.273.289l1.064-.469,1.3-.882.572-.524.381-.4,1.116-1.6.145-.292q.077-.164.146-.331l0-.006a8.616,8.616,0,0,0,.447-4.779,7.986,7.986,0,0,0-5.6-6.116Zm-3.6,1.433Zm3.339.246Zm4.253,6.737Zm-.2,1.139Zm-.551,1.384Zm-1.359,1.7Zm-7.83.5Zm-2.307-2.793Zm2.7-8.164.763-.382.387-.15.195-.064.614-.157a6.359,6.359,0,0,1,3.267.222l.072.025.123.046a6.376,6.376,0,0,1,4.13,6.691l-.2,1.139-.167.529-.383.855-.282.5-.017-.009-.476.623-.282.3-.3.283-1.4.922-1.6.533a6.712,6.712,0,0,1-3.425-.232l-1.1-.522-.308-.2a6.858,6.858,0,0,1-1.741-1.752l-.567-1.041A6.591,6.591,0,0,1,251.817,267.3Z" transform="translate(-246.686 -264.573)" fill-rule="evenodd" fill="url(#linear-gradient-13)"/>
          </g>
        </g>
        <g id="A-2" data-name="A" transform="translate(0 0.099)">
          <g id="Group_49" data-name="Group 49">
            <path id="Shadow_A_" data-name="Shadow &apos;A&apos;" d="M223.492,280.766h-2.374c-.859-1.765-1.774-3.507-2.636-5.262h-6.269c-.864,1.723-1.727,3.483-2.624,5.262h-2.437c2.788-5.466,5.522-10.832,8.22-16.24,2.615,5.386,5.448,10.8,8.12,16.24Zm-10.285-7.4h4.251l-2.113-4.465C214.634,270.383,213.864,271.858,213.207,273.365Z" transform="translate(-207.151 -264.526)" fill="#eb7910" fill-rule="evenodd"/>
            <path id="Letter_A" data-name="Letter A" d="M215.847,265.679l-7.823,15.428-.049.1h1.951l2.628-5.262h6.54l.141.282,2.47,4.923.028.057h1.892l-.057-.123-7.72-15.409Zm-2.357,8.248Zm.192-.4,2.141-4.469,2.459,5.2h-4.947l.155-.324Z" transform="translate(-207.624 -265.188)" fill-rule="evenodd" fill="url(#linear-gradient-14)"/>
          </g>
        </g>
      </g>
      <g id="Technologies" transform="translate(55.557)">
        <g id="Group_50" data-name="Group 50" transform="translate(0 0)">
          <path id="S" d="M718.972,277.331l1.4-.807q1.484,2.62,3.429,2.621a3.374,3.374,0,0,0,1.563-.372,2.672,2.672,0,0,0,1.113-1,2.494,2.494,0,0,0,.383-1.328,2.62,2.62,0,0,0-.563-1.566,13.28,13.28,0,0,0-2.832-2.547,14.518,14.518,0,0,1-2.574-2.172,3.875,3.875,0,0,1-.875-2.429,3.564,3.564,0,0,1,.515-1.891,3.65,3.65,0,0,1,1.457-1.345,4.32,4.32,0,0,1,2.038-.49,4.459,4.459,0,0,1,2.186.556,7.355,7.355,0,0,1,2.153,2.046l-1.347.984a6.348,6.348,0,0,0-1.592-1.567,2.845,2.845,0,0,0-1.431-.38,2.325,2.325,0,0,0-1.638.586,1.87,1.87,0,0,0-.633,1.434,2.369,2.369,0,0,0,.223,1.007,3.844,3.844,0,0,0,.821,1.058c.218.2.931.729,2.137,1.585a11.886,11.886,0,0,1,2.947,2.713,4.261,4.261,0,0,1,.8,2.384,3.987,3.987,0,0,1-1.366,3,4.7,4.7,0,0,1-3.322,1.272,5,5,0,0,1-2.732-.771A7.172,7.172,0,0,1,718.972,277.331Z" transform="translate(-556.373 -264.006)" fill="url(#linear-gradient-15)"/>
          <path id="E" d="M364.449,264.94h9.476v1.567H366.1v4.969h7.758v1.556H366.1v6.229h7.758v1.567h-9.41Z" transform="translate(-352.96 -264.542)" fill="url(#linear-gradient-15)"/>
          <rect id="I" width="1.654" height="15.887" transform="translate(145.775 0.398)" fill="url(#linear-gradient-15)"/>
          <path id="G" d="M647.973,267.073l-1.282,1.164a9.876,9.876,0,0,0-3.031-1.979,8.425,8.425,0,0,0-3.208-.674,7.912,7.912,0,0,0-3.706.917,6.835,6.835,0,0,0-2.724,2.489,6.237,6.237,0,0,0-.966,3.321,6.359,6.359,0,0,0,1,3.406,7.023,7.023,0,0,0,2.763,2.54,8.216,8.216,0,0,0,3.868.922A6.782,6.782,0,0,0,645,277.8a5.409,5.409,0,0,0,2.09-3.583h-5.271V272.68h7.129a7.8,7.8,0,0,1-2.28,5.846,8.324,8.324,0,0,1-6.032,2.164,9.231,9.231,0,0,1-7.258-3,7.784,7.784,0,0,1-2.057-5.345,7.96,7.96,0,0,1,1.178-4.2,8.305,8.305,0,0,1,3.238-3.042,9.756,9.756,0,0,1,4.654-1.095,10.7,10.7,0,0,1,3.956.73A11.858,11.858,0,0,1,647.973,267.073Z" transform="translate(-506.085 -264.006)" fill="url(#linear-gradient-15)"/>
          <path id="O-3" data-name="O" d="M592.928,264.006a8.772,8.772,0,0,1,6.284,2.407,8.207,8.207,0,0,1,0,11.847,8.529,8.529,0,0,1-6.154,2.43,8.631,8.631,0,0,1-6.2-2.419,7.8,7.8,0,0,1-2.528-5.853,8.335,8.335,0,0,1,4.293-7.306,8.729,8.729,0,0,1,4.3-1.106Zm.081,1.556a7.027,7.027,0,0,0-3.476.918,6.782,6.782,0,0,0-2.562,2.473,6.679,6.679,0,0,0-.92,3.465,6.354,6.354,0,0,0,2.04,4.781,6.868,6.868,0,0,0,4.919,1.946,7.288,7.288,0,0,0,3.557-.9,6.545,6.545,0,0,0,2.551-2.451,6.683,6.683,0,0,0,.917-3.454,6.535,6.535,0,0,0-.917-3.421,6.7,6.7,0,0,0-2.577-2.444A7.2,7.2,0,0,0,593.009,265.562Z" transform="translate(-479.12 -264.006)" fill="url(#linear-gradient-15)"/>
          <path id="L" d="M561.07,264.94h1.666v14.354h6.35v1.533H561.07Z" transform="translate(-465.775 -264.542)" fill="url(#linear-gradient-15)"/>
          <path id="O-4" data-name="O" d="M521.044,264.006a8.774,8.774,0,0,1,6.285,2.407,8.206,8.206,0,0,1,0,11.847,8.528,8.528,0,0,1-6.154,2.43,8.63,8.63,0,0,1-6.2-2.419,7.806,7.806,0,0,1-2.529-5.853,8.339,8.339,0,0,1,4.293-7.306,8.726,8.726,0,0,1,4.3-1.106Zm.081,1.556a7.026,7.026,0,0,0-3.476.918,6.777,6.777,0,0,0-2.562,2.473,6.676,6.676,0,0,0-.921,3.465,6.352,6.352,0,0,0,2.041,4.781,6.867,6.867,0,0,0,4.918,1.946,7.285,7.285,0,0,0,3.557-.9,6.549,6.549,0,0,0,2.551-2.451,6.688,6.688,0,0,0,.917-3.454,6.539,6.539,0,0,0-.917-3.421,6.706,6.706,0,0,0-2.578-2.444A7.2,7.2,0,0,0,521.125,265.562Z" transform="translate(-437.876 -264.006)" fill="url(#linear-gradient-15)"/>
          <path id="N" d="M474.209,280.827V264.94h.36L485.562,277.1V264.94h1.63v15.887h-.373l-10.9-12.009v12.009Z" transform="translate(-415.937 -264.542)" fill="url(#linear-gradient-15)"/>
          <path id="H" d="M437.241,264.94H438.9V271.6h8.41V264.94h1.661v15.887h-1.661V273.16H438.9v7.667h-1.661Z" transform="translate(-394.726 -264.542)" fill="url(#linear-gradient-15)"/>
          <path id="C" d="M407.752,267.353l-1.3.962a7.046,7.046,0,0,0-2.59-2.046,7.839,7.839,0,0,0-3.323-.7,7.575,7.575,0,0,0-3.663.91,6.7,6.7,0,0,0-2.613,2.452,6.6,6.6,0,0,0-.928,3.462,6.369,6.369,0,0,0,2.075,4.85,7.354,7.354,0,0,0,5.233,1.943,7.475,7.475,0,0,0,5.809-2.613l1.3.951a8.315,8.315,0,0,1-3.085,2.337,9.979,9.979,0,0,1-4.132.826,8.759,8.759,0,0,1-6.844-2.776,8.176,8.176,0,0,1-2.1-5.659,7.711,7.711,0,0,1,2.547-5.868,8.964,8.964,0,0,1,6.376-2.381,9.685,9.685,0,0,1,4.182.881A8.05,8.05,0,0,1,407.752,267.353Z" transform="translate(-368.532 -264.006)" fill="url(#linear-gradient-15)"/>
          <path id="E-2" data-name="E" d="M692.282,264.94h9.477v1.567h-7.823v4.969h7.758v1.556h-7.758v6.229h7.758v1.567h-9.412Z" transform="translate(-541.06 -264.542)" fill="url(#linear-gradient-15)"/>
          <path id="T-3" data-name="T" d="M346.317,266.582v-1.671h-.161l-7.34,0-1.32,1.834,3.036,0h.407v14.02h1.9v-14.02h3.474Z" transform="translate(-337.495 -264.523)" fill-rule="evenodd" fill="url(#linear-gradient-15)"/>
        </g>
      </g>
    </g>
  </g>
</svg>
