<svg xmlns="http://www.w3.org/2000/svg" width="260.956" height="293.357" viewBox="0 0 260.956 293.357">
  <g id="undraw_cancel_re_pkdm" transform="translate(0)">
    <circle id="Ellipse_3639" data-name="Ellipse 3639" cx="113.018" cy="113.018" r="113.018" transform="translate(34.92)" fill="#f2f2f2"/>
    <path id="Path_82070" data-name="Path 82070" d="M239.223,111.583H32.189a.8.8,0,0,1,0-1.608H239.223a.8.8,0,0,1,0,1.608Z" transform="translate(-17.43 -61.041)" fill="#cacaca"/>
    <rect id="Rectangle_25881" data-name="Rectangle 25881" width="72.799" height="15.567" rx="7.784" transform="translate(86.221 77.632)" fill="#fff"/>
    <path id="Path_82071" data-name="Path 82071" d="M118.465,244.445H249.642a7.784,7.784,0,0,1,7.784,7.784h0a7.784,7.784,0,0,1-7.784,7.784H118.465a7.784,7.784,0,0,1-7.784-7.784h0A7.784,7.784,0,0,1,118.465,244.445Z" transform="translate(-61.433 -135.678)" fill="#fff"/>
    <path id="Path_82072" data-name="Path 82072" d="M118.465,314.418H249.642a7.784,7.784,0,0,1,7.784,7.784h0a7.784,7.784,0,0,1-7.784,7.784H118.465a7.784,7.784,0,0,1-7.784-7.784h0A7.784,7.784,0,0,1,118.465,314.418Z" transform="translate(-61.433 -174.517)" fill="#fff"/>
    <path id="Path_82073" data-name="Path 82073" d="M52.136,612.218l-.309-.03a35.831,35.831,0,0,1-25.891-15.4A34.769,34.769,0,0,1,22.014,589l-.094-.262.278-.023c3.314-.266,6.718-.829,8.23-1.1l-9.751-3.3-.06-.289a6.8,6.8,0,0,1,2.86-7.058,6.912,6.912,0,0,1,7.744-.131c1.062.678,2.172,1.35,3.246,2,3.69,2.232,7.506,4.54,10.367,7.7a21.658,21.658,0,0,1,5.175,17.912l2.128,7.776Z" transform="translate(-11.36 -319.546)" fill="#f2f2f2"/>
    <path id="Path_82074" data-name="Path 82074" d="M171.3,623.736H176.1L178.39,605.2H171.3Z" transform="translate(-95.078 -335.913)" fill="#a0616a"/>
    <path id="Path_82075" data-name="Path 82075" d="M170.919,648.164H185.7v-.187a5.753,5.753,0,0,0-5.752-5.752h0l-2.7-2.048-5.037,2.048h-1.29v5.939Z" transform="translate(-94.868 -355.327)" fill="#2f2e41"/>
    <path id="Path_82076" data-name="Path 82076" d="M84.741,598.448l3.844,2.884,12.954-13.456-5.674-4.256Z" transform="translate(-47.035 -323.936)" fill="#a0616a"/>
    <path id="Path_82077" data-name="Path 82077" d="M77.674,619.8,89.5,628.672l.112-.15a5.753,5.753,0,0,0-1.149-8.053h0l-.93-3.258-5.258-1.384-1.032-.774L77.674,619.8Z" transform="translate(-43.113 -341.382)" fill="#2f2e41"/>
    <path id="Path_82078" data-name="Path 82078" d="M107.061,432.776s.265,7.237.6,13.04c.055.952-2.175,1.986-2.117,3.021.038.687.457,1.355.5,2.071.041.756-.538,1.425-.5,2.207.04.764.7,1.64.74,2.422.429,8.414,1.982,18.486.426,21.3-.767,1.388-10.539,20.612-10.539,20.612s5.445,8.167,7,5.445c2.055-3.6,17.89-20.418,17.89-23.63s3.664-27.255,3.664-27.255l2.554,14.23,1.171,2.819-.368,1.655.757,2.234.041,2.211.737,4.105s-2.217,31.984-.968,32.875,7.315,2.5,8.031.895,5.344-33.38,5.344-33.38.747-14.561,1.556-28.095c.047-.786.6-1.734.642-2.508.051-.9-.3-2.065-.253-2.936.051-1,.494-1.7.537-2.66.331-7.393-1.525-16.4-2.116-17.283C140.6,423.5,139,421.358,139,421.358s-24.043-7.9-30.468.127l-1.469,11.291Z" transform="translate(-53.38 -231.945)" fill="#1b34fb"/>
    <path id="Path_82079" data-name="Path 82079" d="M145.04,281.726l-9.531-1.906-4.448,6.037h0c-8.3,8.161-8.425,15.363-6.943,26.908v16.2l-1.072,10.862s-3.8,7.94.119,9.789,29.633,1.691,32.089.953.327-1.644-.318-5.083c-1.211-6.46-.4-3.344-.318-5.4,1.2-29.506-1.589-41.62-1.871-44.8l-4.847-8.792-2.859-4.766Z" transform="translate(-67.379 -155.313)" fill="#3f3d56"/>
    <path id="Path_82080" data-name="Path 82080" d="M254.556,330.455a3.854,3.854,0,0,1-5.777,1.24l-20.584,13.07.059-7.116,20-11.6a3.874,3.874,0,0,1,6.306,4.409Z" transform="translate(-126.659 -180.251)" fill="#a0616a"/>
    <path id="Path_82081" data-name="Path 82081" d="M146.181,302.273l-2.343-.248a6.2,6.2,0,0,0-5.6,2.443,6.043,6.043,0,0,0-1.057,2.221v.006a6.2,6.2,0,0,0,2.34,6.443l8.094,5.967c5.68,7.675,16.355,12.767,28.877,16.9l19.463-12.088-6.884-8.338-13.35,7.155-19.844-15.361-.011-.009-7.553-4.866-2.132-.229Z" transform="translate(-76.045 -167.619)" fill="#3f3d56"/>
    <circle id="Ellipse_3640" data-name="Ellipse 3640" cx="11.115" cy="11.115" r="11.115" transform="translate(63.326 99.503)" fill="#a0616a"/>
    <path id="Path_82082" data-name="Path 82082" d="M167.382,273.59l-.269.007c-.038.1-.08.2-.128.3Z" transform="translate(-92.685 -151.855)" fill="#2f2e41"/>
    <path id="Path_82083" data-name="Path 82083" d="M174.732,249.3a1.965,1.965,0,0,0,.08.322A1.517,1.517,0,0,0,174.732,249.3Z" transform="translate(-96.984 -138.372)" fill="#2f2e41"/>
    <path id="Path_82084" data-name="Path 82084" d="M159.265,221.536c-.458,1.421-.866-.381-2.371-.057a6.788,6.788,0,0,1-5.4-.854,8.366,8.366,0,0,0-7.664-1.168c-2.537.9-6.787,1.53-7.448,4.139a7.255,7.255,0,0,1-.878,2.642,9.262,9.262,0,0,1-1.9,1.537c-2.17,1.707-.511,6.559.516,9.122a10.047,10.047,0,0,0,5.974,5.387A21.1,21.1,0,0,0,148,243.3a6,6,0,0,0-.12-3.849,24.342,24.342,0,0,1-1.2-4.065,3.932,3.932,0,0,1,1.386-3.786,2.274,2.274,0,0,1,3.257.885c-.24-1.459,1.237-2.87,2.761-3.119,1.636-.267,3.272.324,4.9.618s1.052-6.573.286-8.447Z" transform="translate(-73.568 -121.557)" fill="#2f2e41"/>
    <circle id="Ellipse_3641" data-name="Ellipse 3641" cx="22.746" cy="22.746" r="22.746" transform="translate(100.647 147.921) rotate(-85.269)" fill="#1b34fb"/>
    <path id="Path_82085" data-name="Path 82085" d="M274.606,263.506l-5.975,5.975-5.975-5.975a2.477,2.477,0,1,0-3.5,3.5l5.975,5.975-5.975,5.975a2.477,2.477,0,0,0,3.5,3.5l5.975-5.975,5.975,5.975a2.477,2.477,0,0,0,3.5-3.5l-5.975-5.975,5.975-5.975a2.477,2.477,0,0,0-3.5-3.5Z" transform="translate(-143.44 -145.855)" fill="#fff"/>
    <path id="Path_82086" data-name="Path 82086" d="M244.976,239.4a3.854,3.854,0,0,1-3.1,5.028l-4.819,23.9-5.094-4.969,5.47-22.462a3.874,3.874,0,0,1,7.548-1.5Z" transform="translate(-128.748 -131.394)" fill="#a0616a"/>
    <path id="Path_82087" data-name="Path 82087" d="M141.142,285.113l-1.8,1.519a6.2,6.2,0,0,0-2.112,5.731,6.042,6.042,0,0,0,.871,2.3l0,.005a6.2,6.2,0,0,0,6.269,2.773l9.909-1.709c9.471,1.215,20.535-2.963,32.189-9.135l4.752-22.414-10.783-.8-4.079,14.587-24.823,3.685-.015,0-8.74,2.081Z" transform="translate(-76.123 -146.187)" fill="#3f3d56"/>
    <path id="Path_82088" data-name="Path 82088" d="M121.444,657.668.528,657.8a.53.53,0,0,1,0-1.06l120.916-.137a.53.53,0,0,1,0,1.06Z" transform="translate(0 -364.448)" fill="#cacaca"/>
    <g id="Group_62739" data-name="Group 62739" transform="translate(21.5 32.665)">
      <ellipse id="Ellipse_3642" data-name="Ellipse 3642" cx="3.763" cy="3.847" rx="3.763" ry="3.847" fill="#3f3d56"/>
      <ellipse id="Ellipse_3643" data-name="Ellipse 3643" cx="3.763" cy="3.847" rx="3.763" ry="3.847" transform="translate(12.999)" fill="#3f3d56"/>
      <ellipse id="Ellipse_3644" data-name="Ellipse 3644" cx="3.763" cy="3.847" rx="3.763" ry="3.847" transform="translate(25.997)" fill="#3f3d56"/>
      <path id="Path_82089" data-name="Path 82089" d="M144.794,81.306a.444.444,0,0,1-.318-.134l-2.539-2.6a.445.445,0,0,1,0-.622l2.539-2.6a.445.445,0,0,1,.636.622l-2.235,2.284,2.235,2.284a.445.445,0,0,1-.318.756Z" transform="translate(-100.211 -74.419)" fill="#3f3d56"/>
      <path id="Path_82090" data-name="Path 82090" d="M157.549,81.306a.445.445,0,0,1-.318-.756l2.234-2.284-2.234-2.284a.445.445,0,0,1,.636-.622l2.539,2.6a.445.445,0,0,1,0,.622l-2.539,2.6A.444.444,0,0,1,157.549,81.306Z" transform="translate(-108.7 -74.419)" fill="#3f3d56"/>
      <path id="Path_82091" data-name="Path 82091" d="M449.509,74.414h-4.721a.974.974,0,0,0-.974.974v4.725a.974.974,0,0,0,.974.974h4.721a.978.978,0,0,0,.979-.974V75.389A.978.978,0,0,0,449.509,74.414Z" transform="translate(-267.838 -73.969)" fill="#3f3d56"/>
      <path id="Path_82092" data-name="Path 82092" d="M423.509,74.414h-4.721a.974.974,0,0,0-.974.974v4.725a.974.974,0,0,0,.974.974h4.721a.978.978,0,0,0,.979-.974V75.389A.978.978,0,0,0,423.509,74.414Z" transform="translate(-253.406 -73.969)" fill="#3f3d56"/>
      <path id="Path_82093" data-name="Path 82093" d="M474.009,74.914h-4.721a.974.974,0,0,0-.974.974v4.725a.974.974,0,0,0,.974.974h4.721a.978.978,0,0,0,.979-.974V75.889A.978.978,0,0,0,474.009,74.914Z" transform="translate(-281.436 -74.246)" fill="#3f3d56"/>
      <path id="Path_82094" data-name="Path 82094" d="M272.637,78.954H234.9a1.188,1.188,0,1,0,0,2.376h37.737a1.188,1.188,0,1,0,0-2.376Z" transform="translate(-151.221 -76.489)" fill="#3f3d56"/>
    </g>
  </g>
</svg>
