<svg xmlns="http://www.w3.org/2000/svg" width="20" height="20" viewBox="0 0 20 20"><defs><style>.a{fill:none;}.b{fill:#373a3c;}</style></defs><g transform="translate(0.674 -1.326)"><rect class="a" width="20" height="20" transform="translate(-0.674 1.326)"/><g transform="translate(0 2)"><path class="b" d="M10.658,10.658a.777.777,0,0,0-.777.777V16.1H.554V.554H9.881V5.217a.777.777,0,1,0,1.554,0V-.223A.777.777,0,0,0,10.658-1H-.223A.777.777,0,0,0-1-.223v17.1a.777.777,0,0,0,.777.777H10.658a.777.777,0,0,0,.777-.777v-5.44A.777.777,0,0,0,10.658,10.658Z" transform="translate(1 1)"/><path class="b" d="M243.594,152.713l.021-.028c.008-.011.017-.022.024-.033s.014-.023.021-.034.013-.021.018-.031.011-.023.017-.035.011-.022.016-.034.009-.023.013-.035.009-.024.013-.037.006-.024.009-.035.007-.025.009-.038,0-.027.006-.041,0-.022,0-.034a.781.781,0,0,0,0-.153c0-.011,0-.023,0-.034s0-.028-.006-.041-.006-.026-.009-.038-.006-.024-.009-.035-.008-.025-.013-.037-.008-.023-.013-.035-.01-.022-.016-.034-.011-.024-.017-.035-.012-.021-.018-.031-.013-.023-.021-.034-.016-.022-.024-.033l-.021-.028c-.016-.019-.033-.038-.051-.056h0l-3.109-3.109a.777.777,0,0,0-1.1,1.1l1.782,1.782h-6.673a.777.777,0,0,0,0,1.554h6.673l-1.782,1.782a.777.777,0,1,0,1.1,1.1l3.109-3.109h0Q243.57,152.742,243.594,152.713Z" transform="translate(-225.118 -142.894)"/></g></g></svg>