<svg xmlns="http://www.w3.org/2000/svg" width="468.16" height="75.345" viewBox="0 0 468.16 75.345">
  <g id="formsflow.ai" transform="translate(828 -117.276)">
    <path id="Path_5822" data-name="Path 5822" d="M-809.915,175.957a24.271,24.271,0,0,1-12.215-21.029,24.4,24.4,0,0,1,20.623-24.044l-2.142,2.142a2.972,2.972,0,0,0,0,4.126,3.021,3.021,0,0,0,2.062.873,3.021,3.021,0,0,0,2.062-.873l7.456-7.459a2.972,2.972,0,0,0,0-4.126l-7.456-7.459a2.969,2.969,0,0,0-4.124,0,2.972,2.972,0,0,0,0,4.126l2.617,2.619A30.2,30.2,0,0,0-828,154.928a30.264,30.264,0,0,0,15.15,26.186,3.233,3.233,0,0,0,1.428.4A2.934,2.934,0,0,0-808.884,180a2.884,2.884,0,0,0-1.031-4.047Z" transform="translate(0 0)" fill="#4d61fc"/>
    <path id="Path_5823" data-name="Path 5823" d="M-677.45,197.112a30.554,30.554,0,0,0-15.071-26.186,2.992,2.992,0,0,0-4.045,1.111,2.994,2.994,0,0,0,1.111,4.047,24.293,24.293,0,0,1,12.136,21.028,24.4,24.4,0,0,1-20.623,24.044l2.142-2.142a2.972,2.972,0,0,0,0-4.126,2.969,2.969,0,0,0-4.125,0l-7.456,7.459a2.972,2.972,0,0,0,0,4.126l7.456,7.459a3.021,3.021,0,0,0,2.062.873,3.021,3.021,0,0,0,2.062-.873,2.972,2.972,0,0,0,0-4.126l-2.7-2.7a30.254,30.254,0,0,0,27.048-30Z" transform="translate(-90.108 -42.183)" fill="#4d61fc"/>
    <path id="Path_5824" data-name="Path 5824" d="M-740.9,259.152a2.969,2.969,0,0,0-4.125,0,2.972,2.972,0,0,0,0,4.126l7.059,7.062a3.021,3.021,0,0,0,2.062.873,3.021,3.021,0,0,0,2.062-.873l13.484-13.49a2.972,2.972,0,0,0,0-4.126,2.969,2.969,0,0,0-4.125,0l-11.5,11.427-4.918-5Z" transform="translate(-65.053 -106.605)" fill="#4d61fc"/>
    <path id="Path_5825" data-name="Path 5825" d="M-366.435,184.873c-3.1,0-7.22-.131-7.22,5.491v3.6h7.22v7.223h-7.22v26.377h-9.376V201.182H-389.6v-7.223h6.567v-3.628c0-11.342,6.861-12.976,16.6-12.976v7.517Zm19.013,43.34c-10.683,0-18.394-6.5-18.394-17.486,0-10.917,7.645-17.421,18.394-17.421,10.814,0,18.427,6.5,18.427,17.421,0,10.982-7.645,17.486-18.427,17.486Zm-.1-7.485c5.456,0,9.18-3.987,9.18-10s-3.725-10-9.18-10c-5.26,0-8.952,3.988-8.952,10s3.692,10,8.952,10Zm32.571-21.441c1.7-2.974,6.11-5.72,10.978-5.72v8.4c-7.122,0-10.52,2.092-10.52,9.217v16.375h-9.474v-33.6h9.017v5.328Zm54.331-5.98c7.188,0,11.827,3.661,11.827,10.557v23.7H-258.2V206.544c0-3.955-2.483-5.687-5.293-5.687-3.365,0-6.338,1.928-6.338,7.746v18.957h-9.507V206.643c0-4.02-2.418-5.785-5.391-5.785-3.267,0-6.306,1.928-6.306,8.236v18.467h-9.376v-33.6h9.376v3.955a11.7,11.7,0,0,1,9.736-4.609c4.868,0,8.527,1.765,10.291,5.033,2.352-3.367,5.946-5.033,10.389-5.033Zm30.838,34.906c-7.547,0-13.4-2.974-14.6-9.348l7.874-2.223c1.013,3.6,3.561,5,6.73,5,2.32,0,4.835-.719,4.77-3.367-.033-3.5-5.325-3.791-10.651-5.687-4.019-1.405-7.874-3.563-7.874-9.217,0-6.9,5.717-10.067,13.166-10.067,6.534,0,11.99,2.484,13.3,8.89l-7.286,1.634a5.7,5.7,0,0,0-5.979-4.249c-2.483,0-4.607.882-4.607,2.974,0,2.647,3.888,3.171,8.1,4.315,5.194,1.405,10.879,3.661,10.879,10.851,0,7.714-6.567,10.492-13.82,10.492Zm37.57-43.34c-3.1,0-7.22-.131-7.22,5.491v3.6h7.22v7.223h-7.22v26.377h-9.376V201.182h-6.567v-7.223h6.567v-3.628c0-11.342,6.861-12.976,16.6-12.976v7.517Zm3.363,42.686v-50.2h9.507v50.2Zm32.93.654c-10.683,0-18.394-6.5-18.394-17.486,0-10.917,7.645-17.421,18.394-17.421,10.814,0,18.426,6.5,18.426,17.421,0,10.982-7.645,17.486-18.426,17.486Zm-.1-7.485c5.456,0,9.18-3.987,9.18-10s-3.725-10-9.18-10c-5.26,0-8.952,3.988-8.952,10s3.692,10,8.952,10Zm65.831-26.768h9.736L-92.21,227.593h-8.723l-7.776-22.193-7.841,22.193H-125.4l-11.533-33.633h9.7l6.926,21.866,7.939-21.866h7.22l7.906,21.8,7.057-21.8ZM-71.3,228.213a5.405,5.405,0,0,1-5.358-5.36,5.462,5.462,0,0,1,5.358-5.426,5.475,5.475,0,0,1,5.423,5.426,5.419,5.419,0,0,1-5.423,5.36Zm41.261-9.773a31.374,31.374,0,0,0,.817,8.2v.915h-8.789l-.751-3.661c-2.516,3.04-6.861,4.314-10.781,4.314-5.293,0-10.455-2.353-10.455-9.348,0-6.962,5.195-9.315,12.219-10.851l5.521-1.242c2.385-.556,3.234-1.373,3.234-2.746,0-3.3-3.006-4.216-5.652-4.216-3.4,0-5.979,1.34-6.567,5.132l-8.331-1.5c1.4-6.962,6.5-10.132,15.421-10.132,6.73,0,14.114,1.994,14.114,12.126V218.44Zm-16.564,3.4c4.476,0,8.07-2.974,8.07-9.642l-7.972,2.255c-2.614.621-4.509,1.536-4.509,3.791,0,2.419,1.993,3.6,4.411,3.6Zm28.552-32.913A5.46,5.46,0,0,1-23.51,183.5a5.453,5.453,0,0,1,5.456-5.393,5.44,5.44,0,0,1,5.391,5.393,5.446,5.446,0,0,1-5.391,5.426Zm-4.8,38.633v-33.6h9.474v33.6Z" transform="translate(-347.177 -47.578)"/>
  </g>
</svg>
