<svg xmlns="http://www.w3.org/2000/svg" width="49" height="49" viewBox="0 0 49 49"><defs><style>.a{fill:#fff;}.b{fill:#4d61fc;}</style></defs><path class="a" d="M24.5,0A24.5,24.5,0,1,1,0,24.5,24.5,24.5,0,0,1,24.5,0Z"/><g transform="translate(12.58 12.136)"><g transform="translate(0)"><path class="b" d="M19.895,15.068a11.609,11.609,0,0,0-4.429-2.778,6.738,6.738,0,1,0-7.624,0A11.673,11.673,0,0,0,0,23.308H1.821a9.833,9.833,0,1,1,19.666,0h1.821A11.578,11.578,0,0,0,19.895,15.068Zm-8.241-3.413a4.917,4.917,0,1,1,4.917-4.917A4.922,4.922,0,0,1,11.654,11.654Z" transform="translate(0)"/></g></g></svg>