<svg xmlns="http://www.w3.org/2000/svg" xmlns:xlink="http://www.w3.org/1999/xlink" width="13.34" height="20" preserveAspectRatio="xMidYMid meet" viewBox="0 0 1024 1536" style="-ms-transform: rotate(360deg); -webkit-transform: rotate(360deg); transform: rotate(360deg);"><path d="M736 448q0 13-9.5 22.5T704 480t-22.5-9.5T672 448q0-46-54-71t-106-25q-13 0-22.5-9.5T480 320t9.5-22.5T512 288q50 0 99.5 16t87 54t37.5 90zm160 0q0-72-34.5-134t-90-101.5t-123-62T512 128t-136.5 22.5t-123 62t-90 101.5T128 448q0 101 68 180q10 11 30.5 33t30.5 33q128 153 141 298h228q13-145 141-298q10-11 30.5-33t30.5-33q68-79 68-180zm128 0q0 155-103 268q-45 49-74.5 87T787 898.5T753 1006q47 28 47 82q0 37-25 64q25 27 25 64q0 52-45 81q13 23 13 47q0 46-31.5 71t-77.5 25q-20 44-60 70t-87 26t-87-26t-60-70q-46 0-77.5-25t-31.5-71q0-24 13-47q-45-29-45-81q0-37 25-64q-25-27-25-64q0-54 47-82q-4-50-34-107.5T177.5 803T103 716Q0 603 0 448q0-99 44.5-184.5t117-142t164-89T512 0t186.5 32.5t164 89t117 142T1024 448z" fill="currentColor"/></svg>