<svg xmlns="http://www.w3.org/2000/svg" xmlns:xlink="http://www.w3.org/1999/xlink" width="14" height="14" preserveAspectRatio="xMidYMid meet" viewBox="0 0 1536 1536" style="-ms-transform: rotate(360deg); -webkit-transform: rotate(360deg); transform: rotate(360deg);"><path d="M363 1408l91-91l-235-235l-91 91v107h128v128h107zm523-928q0-22-22-22q-10 0-17 7l-542 542q-7 7-7 17q0 22 22 22q10 0 17-7l542-542q7-7 7-17zm-54-192l416 416l-832 832H0v-416zm683 96q0 53-37 90l-166 166l-416-416l166-165q36-38 90-38q53 0 91 38l235 234q37 39 37 91z" fill="currentColor"/></svg>