<svg id="Layer_2" data-name="Layer 2" xmlns="http://www.w3.org/2000/svg" viewBox="0 0 155 42"><defs><style>.cls-1{fill:#fdb913;}.cls-2{fill:#fff;}.cls-3{fill:#4c81af;}.cls-4{fill:none;}</style></defs><title>gov_bc_logo_AAA_tran</title><rect class="cls-1" x="75.17" y="40.41" width="68.75" height="0.83"/><path class="cls-2" d="M8.6,34.81c9.73,0,23.2,5.48,33,5.48,7,0,13.78-1.86,17.65-4.6A29.62,29.62,0,0,0,.75,26.37a29.18,29.18,0,0,0-.37,4.37,30.18,30.18,0,0,0,.41,4.93A47.74,47.74,0,0,1,8.6,34.81Z"/><polygon class="cls-1" points="49.14 23.89 50.31 24.38 52.91 22.57 49.14 23.89"/><path class="cls-1" d="M5.5,21.87,2.42,20.79l.16-.38L6,21.57H6l.46-.26.18-.11L2.91,19.57l.16-.4,8.44,3.41.28-.12L3.42,18.4,3.61,18l8.87,4.13.12-.06L4,17.2l.18-.37L16.6,23.59c.1-.19.32-.53.42-.71a111,111,0,0,0-9.28-7.77,113.32,113.32,0,0,0,10.47,6.05c.19-.24.35-.43.55-.66L8.17,11.18l.28-.29L17,18.18,9.08,10.24l.3-.31,8.89,8.6L10,9.34l.32-.28L18,17.25l-7-8.8.3-.27,9,10.89c.23-.2.42-.35.66-.54A108.16,108.16,0,0,0,15.29,7.9a110.83,110.83,0,0,0,7.4,9.49c.26-.15.52-.29.79-.42h0L17.1,4.43l.37-.17,5.2,10L18.29,3.9l.39-.17,5,11.3L19.48,3.41l.4-.15,4,10.46L20.72,3l.38-.14,4.19,13.36h0c.28-.09.56-.18.85-.25A110.55,110.55,0,0,0,24.87,4a112.62,112.62,0,0,0,3.29,11.51l.89-.09h0l-1.13-14h.41l1.09,11.24L29.23,1.46h.43l.43,12.36.43-12.36H31l-.2,11.21L31.84,1.49h.41l-1.13,14h0l.87.08a111.67,111.67,0,0,0,3.28-11.5A109.45,109.45,0,0,0,34,15.92l.85.25L39,2.85l.38.14L36.22,13.77l4-10.46.4.15L36.41,15.07l5-11.3.39.17L37.46,14.27l5.2-10,.37.17L36.78,17h0c.26.12.51.26.76.4A111.67,111.67,0,0,0,44.9,7.91a110,110,0,0,0-5.63,10.56c.24.18.48.37.71.57L48.83,8.26l.3.27-7,8.8,7.65-8.19.32.29-8.28,9.19L50.71,10l.3.31L43.1,18.26,51.65,11l.28.29L41.47,20.49h0c.18.2.36.41.53.63a111.56,111.56,0,0,0,10.39-6,109.27,109.27,0,0,0-9.21,7.71c.13.21.34.58.46.8L55.88,17l.18.37-9.77,5.54,10.17-4.73.19.38-9.47,4.61.18.06L57,19.3l.16.39-9,3.81.17.07,6-2,.9-.63.3.23,2-.65.16.38-1.7.6,2.41,1.87.79.44a30,30,0,0,0-58.52.7l.11-.05.36-.16.22-.11Z"/><path class="cls-3" d="M.5,36.28a49.21,49.21,0,0,1,8.12-.89c9.73,0,23.2,5.48,33,5.48,7.17,0,14.16-2,18-4.83a30.18,30.18,0,0,0-.37-12.23l-4.07-2.27L50.4,24.89l-3.28-1.22c-1.09.55-7.8,5-7.8,5L36.74,26.8,34,26.27l-3.69-2.69-4.23,2.9s-4.72,2.74-4.88,2.74-5.69-4.38-5.69-4.38L13,22.15c-.43.27-2.17,1.07-2.17,1.07H10.7L9,22.73,7,21.67.78,24.46l-.11.05A30.08,30.08,0,0,0,.5,36.28Z"/><path class="cls-2" d="M131.19,11l0,0,.08,0h.48c.58,0,.7,0,.7,1.7v6.07c0,1.35,0,1.35-.64,1.37h-.49l-.06,0-.07.05a.62.62,0,0,0,0,.83l.06.06.12,0h4.41l.05,0a.58.58,0,0,0,.21-.51.47.47,0,0,0-.2-.41l-.14-.05,0,0h-.49c-.68,0-.75,0-.75-1.67V16.26a1.1,1.1,0,0,1,0-.21H140a3.52,3.52,0,0,1,.57,0,.77.77,0,0,0,0,.19V18.8c0,1.37,0,1.37-.74,1.39h-.37l-.05,0-.1.07a.6.6,0,0,0,0,.84l.06.07.12,0h4.32l0,0a.58.58,0,0,0,.21-.51.49.49,0,0,0-.2-.41l-.06,0-.05,0h-.47c-.69-.07-.69-.07-.69-1.57V12.75c0-1.63,0-1.63.72-1.7h.42a.55.55,0,0,0,.3-.64.39.39,0,0,0-.38-.35h-4.19l-.05,0a.59.59,0,0,0-.21.51.45.45,0,0,0,.2.4l.05,0,.08,0h.35c.76,0,.76,0,.76,1.7V14.6a1,1,0,0,1,0,.2h-5.49a2.36,2.36,0,0,1-.57,0,.67.67,0,0,0,0-.18V12.75c0-1.63,0-1.63.72-1.7h.39a.55.55,0,0,0,.3-.63.41.41,0,0,0-.38-.36h-4.28l-.05,0a.6.6,0,0,0-.21.52A.43.43,0,0,0,131.19,11ZM87.81,20.19h-.73l0,0-.1.05,0,0,0,0a.61.61,0,0,0,0,.82l.06.06.12,0h5l.06-.07a.61.61,0,0,0,0-.84l0,0,0,0-.1-.05,0,0h-.72c-.7,0-.7,0-.7-.89V16.47a2.88,2.88,0,0,1,0-.48h.19c1.17,0,1.17,0,1.72,1l2,3.57,0,.09a1,1,0,0,0,.94.61h2.32l.06-.06c.27-.28.31-.61.11-.81l-.14-.12-.06,0H97c-.38-.07-.54-.35-.77-.78l-.05-.08-1.63-2.84-.06-.1,0-.07a3.68,3.68,0,0,0-.48-.68,3,3,0,0,0,2.46-2.8c0-2.08-2.11-2.81-3.92-2.81H87.22a.45.45,0,0,0-.33.11.3.3,0,0,0-.09.27v.09a.55.55,0,0,0,.14.4.51.51,0,0,0,.38.12h.25c.94.05.94.05.94,1v7.33C88.51,20.13,88.51,20.13,87.81,20.19Zm2.7-8.28c0-.89,0-.89,1.18-.89,1.64,0,2.44.64,2.44,2a1.72,1.72,0,0,1-.74,1.5A3.69,3.69,0,0,1,91.5,15h-.76c-.23,0-.28,0-.28,0Zm43.77,18a2.42,2.42,0,0,0-.14-4.5,8.45,8.45,0,0,0-3-.45h-.27c-1.58,0-2.88,0-4,.13h0a.32.32,0,0,0-.31.25.83.83,0,0,0,.14.67l0,0,.08,0h.63c.54,0,.64.1.64,1.33l0,6.14c0,1.6.07,1.66-.67,1.77h-.35a.31.31,0,0,0-.23.08.51.51,0,0,0-.16.41.58.58,0,0,0,.17.41l.06,0,.11,0h4.41c3.32,0,5.23-1.26,5.23-3.45A3.09,3.09,0,0,0,134.28,29.92Zm-4-3.74h.07a2.27,2.27,0,0,1,.67-.1h.12c1.15,0,2.48.5,2.48,1.89,0,1-.45,1.7-2.68,1.77h-.68V26.31A.26.26,0,0,1,130.28,26.18Zm1.53,9.08h-.19a1.68,1.68,0,0,1-1-.36,2.51,2.51,0,0,1-.33-1.54V30.89a2.39,2.39,0,0,1,.83-.07c2.81,0,3.4,1.34,3.4,2.47C134.49,34.92,133,35.26,131.81,35.26ZM104,12.32v0l0,0a.63.63,0,0,0,.52.29.61.61,0,0,0,.3-.08h0l0,0,0-.05,0,0v0a2.63,2.63,0,0,1,.65-1,3.7,3.7,0,0,1,1.88-.34h1.11V19c0,1.15,0,1.15-.62,1.2h-.62l-.18.06h-.05l0,0a.59.59,0,0,0,0,.84l.06.05.1,0h4.64l.06,0a.58.58,0,0,0,.21-.51.45.45,0,0,0-.21-.41l-.1-.06,0,0h-.54c-.69-.05-.69-.05-.69-1.57v-.09l0-7.21v-.25H112a2.94,2.94,0,0,1,1.78.36,1.83,1.83,0,0,1,.27.94v.08l.06.08a.65.65,0,0,0,.45.19.62.62,0,0,0,.41-.16l.07-.06,0-.13a9.45,9.45,0,0,1,.24-2.4l0-.13.06-.24h-.85l-.06.1,0,.05c-.17.3-.17.3-1,.3h-6.8c-.84,0-1-.05-1.08-.26v0l0,0-.06-.07,0,0,0,0a.75.75,0,0,0-.54,0l0,0,0,0-.06.07,0,0v0a15.59,15.59,0,0,1-.61,2.35l0,0v.14Zm12.69,7.88h-.55l-.06.06a.6.6,0,0,0,0,.85l.1.07,0,.05h4.56l0,0,.09-.05a.63.63,0,0,0,.2-.52.47.47,0,0,0-.22-.4l0,0h-.54c-.81-.05-.81-.05-.81-1.7V12.78c0-1.69,0-1.69.81-1.75h.51a.54.54,0,0,0,.3-.64.39.39,0,0,0-.38-.35h-4.55l0,0a.61.61,0,0,0-.22.54.45.45,0,0,0,.22.39l0,0h.54c.79,0,.8,0,.8,1.75V18.5C117.47,20.11,117.46,20.12,116.66,20.2Zm-17.37,0h-.55l-.06.06a.59.59,0,0,0,0,.85l0,0,0,0,.12.06,0,0h4.46l0,0,.1-.05a.59.59,0,0,0,.21-.51.45.45,0,0,0-.21-.41l0,0h-.55c-.8-.05-.8-.05-.8-1.7V12.78c0-1.69,0-1.69.81-1.75h.51a.55.55,0,0,0,.3-.64.39.39,0,0,0-.38-.35H98.76l-.05,0a.68.68,0,0,0-.22.54.46.46,0,0,0,.23.39l0,0h.54c.79,0,.8,0,.8,1.75V18.5C100.1,20.11,100.09,20.12,99.29,20.2Zm23,.55.09.07a7.12,7.12,0,0,0,2.93.63h.23c2.6,0,4.33-1.27,4.38-3.24,0-1.36-.83-2.45-2.53-3.35l-1.52-.8c-.66-.36-1.45-1-1.45-1.73,0-1,.66-1.48,2-1.48l.25,0a2.08,2.08,0,0,1,2,1.6l0,.08.08.08a.76.76,0,0,0,.43.14.72.72,0,0,0,.4-.12l0,0,.09-.06v-.16a6.47,6.47,0,0,0-.35-2.1l0-.07,0-.12h-.21a2.9,2.9,0,0,1-.59-.09,8.8,8.8,0,0,0-1.83-.22h0c-2.87,0-4.16,1.54-4.16,3.07a3.76,3.76,0,0,0,2.17,3l1.79,1c1.29.71,1.39,1.37,1.39,2s-.64,1.55-2.07,1.55h-.15a3,3,0,0,1-2.87-2.17.5.5,0,0,0-.41-.28h0a.67.67,0,0,0-.5.18l-.06.07,0,.11a6.83,6.83,0,0,0,.54,2.39Zm32.14,14.66-.06-.06h-.64c-.41-.1-.63-.69-.84-1.2l-.1-.23-3.61-8.56a.5.5,0,0,0-.48-.39c-.38,0-.51.36-.56.51L144.71,34a5.43,5.43,0,0,1-.61,1.23.77.77,0,0,1-.43.15h-.83l-.06.06a.61.61,0,0,0,0,.84l.1.08h3.83l.1,0a.6.6,0,0,0,0-.84l-.05,0-.09,0h-.6c-.33,0-.49-.18-.49-.32a2.39,2.39,0,0,1,.22-.81l.53-1.27a2.72,2.72,0,0,0,.12-.25c.09-.23.09-.23.48-.23h2.41c.54,0,.54,0,.7.39,0,.08.08.18.12.28l.57,1.29a2.28,2.28,0,0,1,.21.64c0,.1-.08.28-.57.28h-.57l-.06.06a.57.57,0,0,0,0,.82l.06.06.11,0h4.48l.06-.06A.59.59,0,0,0,154.43,35.41Zm-5.15-4.06H146.9c.39-1,.95-2.39,1.23-3.05.28.65.85,2,1.25,2.95a.36.36,0,0,1,0,.09Zm-38.36-6.13,0,0-.11,0h-4l-.06.06a.62.62,0,0,0,0,.86l.06.06.12,0h.52a.89.89,0,0,1,.53.09,40,40,0,0,1,.19,5.07c0,2.93-1.6,4-3.1,4-2.18,0-3.15-1.23-3.15-4V27.5c0-1.31,0-1.31.65-1.36H103l0,0,.06,0a.55.55,0,0,0,.24-.63.43.43,0,0,0-.41-.32H98.74l-.09,0a.59.59,0,0,0-.21.51.47.47,0,0,0,.21.41l0,0,.08,0h.45c.71,0,.71,0,.71,1.63V31.6c0,2,.46,3.25,1.45,4a5.4,5.4,0,0,0,3,.95h.5a5,5,0,0,0,3.29-1.26,5.21,5.21,0,0,0,1.28-4.05s0-3.85.22-5a.69.69,0,0,1,.48-.16h.49l.09,0h.06l.05,0a.76.76,0,0,0,.21-.43A.52.52,0,0,0,110.92,25.22Zm14.89,10.12H125a1.22,1.22,0,0,1-.61-.14c-.08-.06-.13-.1-.15-.37v0c0-.2,0-.4,0-.52s0-7.07,0-7.16c0-.43,0-.68.07-.87s.28-.12.43-.12h.73l.07,0a.35.35,0,0,0,.16-.33c0-.05,0-.48-.14-.59l-.06,0h-2.62a.66.66,0,0,0-.69.34l-3.67,7.74-3.28-7.61a.57.57,0,0,0-.63-.46H112a.25.25,0,0,0-.28.23c0,.18,0,.66.19.74h.81c.26,0,.41,0,.46.06s.07.31,0,.7l-.58,7.51c0,.79-.06.89-.66,1h-.76l-.06.05a.74.74,0,0,0-.05.87l.13.06h3.85l.14,0,0,0a.74.74,0,0,0,.06-.86l-.06-.06h-.77a1,1,0,0,1-.7-.28,1.57,1.57,0,0,1-.17-1.24l.49-6.42,3.41,8.35,0,.07c.07.16.17.4.44.4a.44.44,0,0,0,.41-.31l0,0s0,0,0,0,0,0,0,0l3.91-8.7V34.3a5.25,5.25,0,0,1,0,.53h0c0,.26-.12.28-.17.33a1.21,1.21,0,0,1-.6.17h-.76l-.06.06a.74.74,0,0,0,0,.86l.06.07h5l.06-.06a.75.75,0,0,0,0-.86ZM75.15,9.3l.09,0h.67c.56,0,.71,0,.71,1.53l.09,7.2c0,1.91,0,1.92-.9,2.05l-.44.09-.06,0,0,0a.65.65,0,0,0,0,.88l0,0h0l.08,0,0,0h4.93c3.72,0,5.85-1.44,5.85-3.95a3.55,3.55,0,0,0-2.86-3.41,2.82,2.82,0,0,0,1.79-2.59,2.76,2.76,0,0,0-1.78-2.63,8.89,8.89,0,0,0-3.14-.56h-.51c-1.9,0-3.33.05-4.49.15a.37.37,0,0,0-.32.31.73.73,0,0,0,.17.7Zm8.55,8.31c0,1.92-1.63,2.33-3,2.33h-.22a1.78,1.78,0,0,1-1.18-.44,3.16,3.16,0,0,1-.38-1.79V14.89a.41.41,0,0,1,0-.12,2.44,2.44,0,0,1,.9-.07C83.2,14.7,83.7,16.52,83.7,17.61ZM78.92,9.34h0a2.57,2.57,0,0,1,.72-.11h.18c1.32,0,2.83.58,2.83,2.24,0,1.24-.5,2-3,2.11h-.44a1.84,1.84,0,0,1-.34,0v-.22l0-3.82A.52.52,0,0,1,78.92,9.34ZM99.09,33.45a.74.74,0,0,0-.36-.09.55.55,0,0,0-.32.09l0,0,0,.07a3.17,3.17,0,0,1-1.12,1.49,4.8,4.8,0,0,1-1.73.18H95A2.63,2.63,0,0,1,93.47,35c-.21-.21-.27-.53-.27-1.52V27.84c0-1.63.06-1.64.8-1.7h.49l0,0a.53.53,0,0,0,.26-.62.4.4,0,0,0-.38-.36H89.85l-.06,0a.67.67,0,0,0-.22.53.48.48,0,0,0,.23.4l0,0h.53c.87.05.87.05.87,1.7v5.79c0,1.63,0,1.63-.76,1.71h-.64l-.06.07a.61.61,0,0,0,0,.84l.06.06.12,0h8.56l.05-.12,0-.05a12.88,12.88,0,0,0,.77-2.32A.4.4,0,0,0,99.09,33.45Zm-22.51-.91a.74.74,0,0,0-.35.1l-.06,0-.06.09a3.81,3.81,0,0,1-3.64,2.61h-.15c-3.27,0-5.55-2.49-5.55-6,0-4.12,2.69-5.59,5.2-5.59,2.08,0,3.33.87,3.71,2.59v.07l.06.07a.73.73,0,0,0,.48.19.7.7,0,0,0,.46-.16l0,0,.08-.07,0-.11v-.05c-.16-1.24-.27-2.4-.27-2.81v-.32h-.37a1,1,0,0,1-.38-.07,15.07,15.07,0,0,0-3.52-.48H72a8.74,8.74,0,0,0-5.19,1.72,6.75,6.75,0,0,0-2.53,5.4,6.51,6.51,0,0,0,2.9,5.59,8.76,8.76,0,0,0,4.69,1.35h.32a11.66,11.66,0,0,0,3.15-.47A4.12,4.12,0,0,1,76,36h.09l.09-.09a7.47,7.47,0,0,0,1-2.84v-.09l0-.12A.79.79,0,0,0,76.58,32.54Zm64.61-6.39h.49a.55.55,0,0,0,.31-.63.41.41,0,0,0-.39-.36h-4.42l-.05,0a.61.61,0,0,0-.22.51.47.47,0,0,0,.21.41l0,0h.53c.75,0,.77,0,.77,1.75v5.72c0,1.61,0,1.62-.79,1.7h-.54l0,.06a.6.6,0,0,0,0,.85l.06.06.11,0h4.47l.05,0a.62.62,0,0,0,.22-.51.49.49,0,0,0-.21-.41l0,0h-.53c-.76,0-.76,0-.76-1.7V27.9C140.42,26.21,140.46,26.21,141.19,26.15Zm-52.92.44a6.18,6.18,0,0,0-4.6-1.78h-.3a6,6,0,0,0-6,6c0,2.85,2.16,5.74,6.3,5.74h.2a5.92,5.92,0,0,0,5.95-5.9A5.79,5.79,0,0,0,88.27,26.59Zm-4.36,8.84c-1.57,0-4.23-1.09-4.23-5.16,0-3.22,2-4.36,3.7-4.36,3.06,0,4.15,2.8,4.15,5.21v.11C87.51,33.15,86.54,35.43,83.91,35.43Z"/><rect class="cls-4" width="155" height="42"/></svg>