<svg xmlns="http://www.w3.org/2000/svg" width="44.672" height="58.073" viewBox="0 0 44.672 58.073"><defs><style>.a{fill:#a4a4a4;}</style></defs><g transform="translate(20.694 5.026)"><g transform="translate(0)"><circle class="a" cx="1.675" cy="1.675" r="1.675"/></g></g><g transform="translate(0)"><path class="a" d="M92.67,13.4A4.467,4.467,0,0,0,88.2,8.934H82a6.683,6.683,0,0,0-3.111-1.973,3.074,3.074,0,0,1-2.116-2.116,6.7,6.7,0,0,0-12.881,0,3.079,3.079,0,0,1-2.119,2.117,6.681,6.681,0,0,0-3.108,1.972h-6.2A4.467,4.467,0,0,0,48,13.4v40.2a4.467,4.467,0,0,0,4.467,4.467H88.2a4.467,4.467,0,0,0,4.467-4.467C92.671,40.919,92.67,28.771,92.67,13.4Zm-33.5-.036a4.492,4.492,0,0,1,3.226-4.257,5.3,5.3,0,0,0,3.647-3.646,4.469,4.469,0,0,1,8.588,0,5.294,5.294,0,0,0,3.645,3.645A4.486,4.486,0,0,1,81.5,13.4v2.234H59.167ZM88.2,55.839H52.466a2.236,2.236,0,0,1-2.234-2.234V13.4a2.236,2.236,0,0,1,2.234-2.234h4.85a6.68,6.68,0,0,0-.382,2.18v4.521h26.8V13.4a6.681,6.681,0,0,0-.386-2.234H88.2A2.236,2.236,0,0,1,90.437,13.4c0,6.386,0,36.331,0,40.2A2.236,2.236,0,0,1,88.2,55.839Z" transform="translate(-47.999)"/></g></svg>