<svg xmlns="http://www.w3.org/2000/svg" width="31.954" height="31.954" viewBox="0 0 31.954 31.954"><defs><style>.a{fill:#66a9df;}.b{fill:#4f84cf;}.c{fill:#d6f3fe;}.d{fill:#bdecfc;}</style></defs><path class="a" d="M15.977,31.954A15.977,15.977,0,1,1,31.954,15.977,15.975,15.975,0,0,1,15.977,31.954Zm0,0"/><path class="b" d="M256,0V31.954A15.977,15.977,0,0,0,256,0Zm0,0" transform="translate(-240.023)"/><path class="c" d="M70.9,316a14.984,14.984,0,0,0-12.321,6.426,15.976,15.976,0,0,0,24.755-.139C81.766,320.724,78.226,316,70.9,316Zm0,0" transform="translate(-54.926 -296.278)"/><path class="d" d="M268.434,322.287A15.935,15.935,0,0,1,256,328.232V316c7.324,0,10.863,4.724,12.434,6.287Zm0,0" transform="translate(-240.023 -296.278)"/><path class="c" d="M171.617,74.106A5.623,5.623,0,0,1,166,68.489V66.617a5.617,5.617,0,1,1,11.234,0v1.872A5.623,5.623,0,0,1,171.617,74.106Zm0,0" transform="translate(-155.64 -57.193)"/><path class="d" d="M256,61V74.106a5.623,5.623,0,0,0,5.617-5.617V66.617A5.623,5.623,0,0,0,256,61Zm0,0" transform="translate(-240.023 -57.193)"/></svg>