<svg xmlns="http://www.w3.org/2000/svg" width="974" height="657.002" viewBox="0 0 974 657.002">
  <g id="undraw_select_re_3kbd" transform="translate(0 -72.15)">
    <path id="Path_81053" data-name="Path 81053" d="M261.42,683.786a7.515,7.515,0,0,1-4.934-1.843l-11.121-9.7a7.518,7.518,0,0,1-.729-10.584L325.5,568.947a5.965,5.965,0,0,1,.515-.536,7.5,7.5,0,0,1,10.061-.181l11.129,9.7a7.5,7.5,0,0,1,2.55,5.142h0a7.49,7.49,0,0,1-1.832,5.441l-80.85,92.71a7.5,7.5,0,0,1-5.651,2.562Z" transform="translate(-113 -85.424)" fill="#4d61fc"/>
    <path id="Path_81054" data-name="Path 81054" d="M409.974,587.335a7.77,7.77,0,0,1-2.3-.352,7.477,7.477,0,0,1-4.386-3.708l-6.761-13.121a7.471,7.471,0,0,1,1.706-9.056,7.1,7.1,0,0,1,1.518-1.047L509.1,503.681a7.516,7.516,0,0,1,10.1,3.225l6.76,13.121a7.517,7.517,0,0,1-3.227,10.1L413.393,586.5a7.441,7.441,0,0,1-3.419.835Z" transform="translate(-113 -85.424)" fill="#4d61fc"/>
    <path id="Path_81055" data-name="Path 81055" d="M408,590.516a7.584,7.584,0,0,1-6.727-4.146l-6.62-13.19a7.468,7.468,0,0,1-.578-5.155c.029-.133.073-.278.116-.418l.04-.132c.117-.344.232-.835.366-1.4l.078-.33c.489-2.122,1.1-4.765,2.322-5.866a2.187,2.187,0,0,1,.511-.356l48-29.1a7.491,7.491,0,0,1,10.136,3.294L467.773,558.7a7.509,7.509,0,0,1-3.347,10.057l-53.158,20.988a7.2,7.2,0,0,1-3.268.771Z" transform="translate(-113 -85.424)" fill="#2f2e41"/>
    <circle id="Ellipse_2411" data-name="Ellipse 2411" cx="53.519" cy="53.519" r="53.519" transform="translate(205.537 328.81)" fill="#4d61fc"/>
    <path id="Path_81056" data-name="Path 81056" d="M358.624,814.1h-14.76a7.508,7.508,0,0,1-7.5-7.5V681.585a7.508,7.508,0,0,1,7.5-7.5h14.76a7.312,7.312,0,0,1,2.714.516,7.443,7.443,0,0,1,4.764,6.637,1.962,1.962,0,0,1,.022.348V806.6a7.508,7.508,0,0,1-7.5,7.5Z" transform="translate(-113 -85.424)" fill="#4d61fc"/>
    <path id="Path_81057" data-name="Path 81057" d="M440.894,737.456a4.028,4.028,0,0,0-.229-.34,6.959,6.959,0,0,0-.76-1.35l-25.16-35.2-20.73-28.99h-35.36l2.5,3.49,4.45,6.23,13.789,19.28,29.55,41.33-27.39,55.02c-1.12,2.24.79,5.46,4.24,7.18l13.21,6.58a9.712,9.712,0,0,0,4.23,1.06c1.86,0,3.41-.69,4.06-2l34.05-68.4a3.963,3.963,0,0,0-.45-3.89Z" transform="translate(-113 -85.424)" fill="#4d61fc"/>
    <path id="Path_81058" data-name="Path 81058" d="M320.555,623.186a7.516,7.516,0,0,1-5.232-2.154L295.3,601.826a7.427,7.427,0,0,1-2.158-4.281,6.475,6.475,0,0,1-.085-1.018,6.82,6.82,0,0,1,.087-1.155,7.383,7.383,0,0,1,2.078-4.167l42.588-36.816c1.154-1.19,4.081-.943,6.663-.726l.39.032a14.049,14.049,0,0,0,1.432.082c.177.019.382.009.571.019a7.547,7.547,0,0,1,4.762,2.144l10.51,10.361a7.509,7.509,0,0,1,.075,10.607l-36.23,43.987a7.479,7.479,0,0,1-5.425,2.293Z" transform="translate(-113 -85.424)" fill="#2f2e41"/>
    <path id="Path_81059" data-name="Path 81059" d="M369.932,489.589l-.056-2c3.721-.1,7-.337,9.466-2.138a6.148,6.148,0,0,0,2.381-4.528,3.514,3.514,0,0,0-1.153-2.9c-1.636-1.382-4.269-.935-6.188-.055l-1.655.759,3.173-23.19,1.981.271-2.7,19.727c2.607-.767,5.023-.437,6.678.961a5.471,5.471,0,0,1,1.86,4.492,8.133,8.133,0,0,1-3.2,6.073C377.354,489.381,373.239,489.5,369.932,489.589Z" transform="translate(-113 -85.424)" fill="#2f2e41"/>
    <rect id="Rectangle_25424" data-name="Rectangle 25424" width="10.771" height="2" transform="translate(274.682 372.091)" fill="#2f2e41"/>
    <rect id="Rectangle_25425" data-name="Rectangle 25425" width="10.771" height="2" transform="translate(240.682 372.091)" fill="#2f2e41"/>
    <path id="Path_81060" data-name="Path 81060" d="M420.634,701.076h-95c-3.645,0-6.5-5.854-6.5-13.328V594.076a54.028,54.028,0,0,1,37.711-51.5,9.372,9.372,0,0,1-.211-2,9.511,9.511,0,0,1,9.5-9.5h14a9.511,9.511,0,0,1,9.5,9.5,9.371,9.371,0,0,1-.222,2.006,53.642,53.642,0,0,1,14.81,7.335c.932.651,1.85,1.345,2.728,2.062a53.864,53.864,0,0,1,17.025,23.879c.552,1.524,1.041,3.1,1.453,4.692h0a54.365,54.365,0,0,1,1.706,13.524v93.672c0,7.287-2.756,13.1-6.291,13.3a.739.739,0,0,1-.209.026Z" transform="translate(-113 -85.424)" fill="#2f2e41"/>
    <path id="Path_81061" data-name="Path 81061" d="M367.634,735.076h-38a6.507,6.507,0,0,1-6.5-6.5v-30a6.507,6.507,0,0,1,6.5-6.5h38a6.507,6.507,0,0,1,6.5,6.5v30a6.507,6.507,0,0,1-6.5,6.5Z" transform="translate(-113 -85.424)" fill="#2f2e41"/>
    <path id="Path_81062" data-name="Path 81062" d="M391.055,735.754a6.511,6.511,0,0,1-6.1-4.235L374.506,703.4a6.508,6.508,0,0,1,3.829-8.357L413.956,681.8a6.509,6.509,0,0,1,8.357,3.829l10.449,28.122a6.508,6.508,0,0,1-3.829,8.357l-35.621,13.235a6.469,6.469,0,0,1-2.257.407Z" transform="translate(-113 -85.424)" fill="#2f2e41"/>
    <path id="Path_81063" data-name="Path 81063" d="M346.894,442.44c9.918-5.732,21.946-1.335,32.192,1.07,10.947,2.569,22.519,3.125,32.837-2.065,8.587-4.32,15.406-12.837,16.224-22.6.764-9.122-4.374-18.842-13.064-22.264-8.853-3.487-20.123,1.075-23.351,10.16l2.742-.358c-10.611-13.93-23.69-28.3-41.941-31.017-8.188-1.217-16.928-.11-23.924,4.566-6.558,4.383-10.782,11.151-13.272,18.52-2.889,8.551-3.645,17.706-4.168,26.661-.113,1.929,2.888,1.922,3,0,.821-14.062,2.153-31.024,13.651-40.848,5.968-5.1,13.937-6.875,21.632-6.259,8.173.654,15.751,4.042,22.321,8.836,7.873,5.744,14.243,13.351,20.112,21.056a1.525,1.525,0,0,0,2.742-.358c2.592-7.292,11.686-10.693,18.764-8.388,8,2.606,12.43,11.683,11.758,19.7-.769,9.176-7.791,16.893-15.91,20.566-9.781,4.425-20.5,3.344-30.62.9-10.751-2.6-22.895-6.442-33.237-.465a1.5,1.5,0,0,0,1.514,2.59Z" transform="translate(-113 -85.424)" fill="#2f2e41"/>
    <path id="Path_81064" data-name="Path 81064" d="M606.907,157.575a32,32,0,0,0,0,64h0a32,32,0,0,0,0-64Z" transform="translate(-113 -85.424)" fill="#f2f2f2"/>
    <path id="Path_81065" data-name="Path 81065" d="M839.246,216.576h-168a8,8,0,0,1,0-16h168a8,8,0,0,1,0,16Z" transform="translate(-113 -85.424)" fill="#f2f2f2"/>
    <path id="Path_81066" data-name="Path 81066" d="M724.246,182.576h-53a8,8,0,0,1,0-16h53a8,8,0,0,1,0,16Z" transform="translate(-113 -85.424)" fill="#f2f2f2"/>
    <path id="Path_81067" data-name="Path 81067" d="M606.907,291.575a32,32,0,0,0,0,64h0a32,32,0,0,0,0-64Z" transform="translate(-113 -85.424)" fill="#f2f2f2"/>
    <path id="Path_81068" data-name="Path 81068" d="M839.246,350.576h-168a8,8,0,0,1,0-16h168a8,8,0,0,1,0,16Z" transform="translate(-113 -85.424)" fill="#f2f2f2"/>
    <path id="Path_81069" data-name="Path 81069" d="M724.246,316.576h-53a8,8,0,0,1,0-16h53a8,8,0,0,1,0,16Z" transform="translate(-113 -85.424)" fill="#f2f2f2"/>
    <path id="Path_81070" data-name="Path 81070" d="M606.907,559.576a32,32,0,0,0,0,64h0a32,32,0,0,0,0-64Z" transform="translate(-113 -85.424)" fill="#f2f2f2"/>
    <path id="Path_81071" data-name="Path 81071" d="M839.246,618.576h-168a8,8,0,0,1,0-16h168a8,8,0,0,1,0,16Z" transform="translate(-113 -85.424)" fill="#f2f2f2"/>
    <path id="Path_81072" data-name="Path 81072" d="M724.246,584.576h-53a8,8,0,0,1,0-16h53a8,8,0,0,1,0,16Z" transform="translate(-113 -85.424)" fill="#f2f2f2"/>
    <path id="Path_81073" data-name="Path 81073" d="M606.907,693.576a32,32,0,0,0,0,64h0a32,32,0,0,0,0-64Z" transform="translate(-113 -85.424)" fill="#f2f2f2"/>
    <path id="Path_81074" data-name="Path 81074" d="M839.246,752.576h-168a8,8,0,0,1,0-16h168a8,8,0,0,1,0,16Z" transform="translate(-113 -85.424)" fill="#f2f2f2"/>
    <path id="Path_81075" data-name="Path 81075" d="M724.246,718.576h-53a8,8,0,0,1,0-16h53a8,8,0,0,1,0,16Z" transform="translate(-113 -85.424)" fill="#f2f2f2"/>
    <path id="Path_81076" data-name="Path 81076" d="M904.077,534.576h-386a16.519,16.519,0,0,1-16.5-16.5v-124a16.519,16.519,0,0,1,16.5-16.5h386a16.519,16.519,0,0,1,16.5,16.5v124A16.519,16.519,0,0,1,904.077,534.576Z" transform="translate(-113 -85.424)" fill="#fff"/>
    <path id="Path_81077" data-name="Path 81077" d="M606.907,424.076a32,32,0,0,0,0,64h0a32,32,0,0,0,0-64Z" transform="translate(-113 -85.424)" fill="#4d61fc"/>
    <path id="Path_81078" data-name="Path 81078" d="M839.246,483.076h-168a8,8,0,0,1,0-16h168a8,8,0,0,1,0,16Z" transform="translate(-113 -85.424)" fill="#ccc"/>
    <path id="Path_81079" data-name="Path 81079" d="M724.246,449.076h-53a8,8,0,0,1,0-16h53a8,8,0,0,1,0,16Z" transform="translate(-113 -85.424)" fill="#ccc"/>
    <path id="Path_81080" data-name="Path 81080" d="M904.077,534.576h-386a16.519,16.519,0,0,1-16.5-16.5v-124a16.519,16.519,0,0,1,16.5-16.5h386a16.519,16.519,0,0,1,16.5,16.5v124A16.519,16.519,0,0,1,904.077,534.576Zm-386-156a15.517,15.517,0,0,0-15.5,15.5v124a15.518,15.518,0,0,0,15.5,15.5h386a15.517,15.517,0,0,0,15.5-15.5v-124a15.518,15.518,0,0,0-15.5-15.5Z" transform="translate(-113 -85.424)" fill="#3f3d56"/>
    <path id="Path_395" data-name="Path 395" d="M603.871,469.365a3.884,3.884,0,0,1-2.336-.777l-.042-.031-8.8-6.732a3.911,3.911,0,1,1,4.759-6.207l5.7,4.371,13.469-17.572a3.909,3.909,0,0,1,5.481-.724h0l-.084.116.086-.116a3.914,3.914,0,0,1,.723,5.482l-15.843,20.66a3.912,3.912,0,0,1-3.111,1.525Z" transform="translate(-113 -85.424)" fill="#fff"/>
    <path id="Path_81081" data-name="Path 81081" d="M1086,814.576H114a1,1,0,0,1,0-2h972a1,1,0,0,1,0,2Z" transform="translate(-113 -85.424)" fill="#ccc"/>
  </g>
</svg>
