<svg xmlns="http://www.w3.org/2000/svg" width="51.287" height="57.289" viewBox="0 0 51.287 57.289">
  <g id="undraw_export_files_re_99ar" transform="translate(-179.737 0)">
    <g id="Group_28" data-name="Group 28" transform="translate(179.737 0)">
      <path id="Path_410" data-name="Path 410" d="M584.941,194.414a1.19,1.19,0,0,0-1.088-.728H562.138a1.178,1.178,0,0,0-1.177,1.177v27.471a1.178,1.178,0,0,0,1.177,1.177h21.715a1.179,1.179,0,0,0,1.177-1.177V194.863A1.155,1.155,0,0,0,584.941,194.414Zm-.172,27.92a.917.917,0,0,1-.915.915H562.138a.915.915,0,0,1-.915-.915h0V194.863a.917.917,0,0,1,.915-.915h21.715a.92.92,0,0,1,.85.577,1.007,1.007,0,0,1,.034.1.909.909,0,0,1,.031.236Z" transform="translate(-560.961 -193.686)" fill="#ccc"/>
      <path id="Path_411" data-name="Path 411" d="M630.278,222.078h-6.541a.523.523,0,0,1,0-1.047h6.541a.523.523,0,1,1,0,1.047Z" transform="translate(-610.83 -215.591)" fill="#ccc"/>
      <path id="Path_412" data-name="Path 412" d="M630.278,235.888h-6.541a.523.523,0,0,1,0-1.047h6.541a.523.523,0,1,1,0,1.047Z" transform="translate(-610.83 -226.654)" fill="#ccc"/>
      <path id="Path_413" data-name="Path 413" d="M587.356,220.51h-4.781a.589.589,0,0,1-.589-.589v-5.641a.589.589,0,0,1,.589-.589h4.781a.589.589,0,0,1,.589.589v5.641A.589.589,0,0,1,587.356,220.51Z" transform="translate(-577.804 -209.712)" fill="#ccc"/>
      <path id="Path_414" data-name="Path 414" d="M596.863,264.164H582.081a.523.523,0,1,1,0-1.047h14.782a.523.523,0,0,1,0,1.047Z" transform="translate(-577.46 -249.305)" fill="#ccc"/>
      <path id="Path_415" data-name="Path 415" d="M596.863,277.978H582.081a.523.523,0,1,1,0-1.047h14.782a.523.523,0,0,1,0,1.047Z" transform="translate(-577.46 -260.371)" fill="#ccc"/>
      <path id="Path_416" data-name="Path 416" d="M596.863,291.783H582.081a.523.523,0,1,1,0-1.047h14.782a.523.523,0,0,1,0,1.047Z" transform="translate(-577.46 -271.43)" fill="#ccc"/>
      <path id="Path_417" data-name="Path 417" d="M596.863,305.6H582.081a.523.523,0,1,1,0-1.047h14.782a.523.523,0,0,1,0,1.047Z" transform="translate(-577.46 -282.495)" fill="#ccc"/>
      <path id="Path_418" data-name="Path 418" d="M596.863,319.4H582.081a.523.523,0,1,1,0-1.047h14.782a.523.523,0,0,1,0,1.047Z" transform="translate(-577.46 -293.555)" fill="#ccc"/>
    </g>
    <path id="Path_336" data-name="Path 336" d="M624.715,275.158a1.512,1.512,0,0,0-1.383-.925h-27.6a1.5,1.5,0,0,0-1.5,1.5v34.912a1.5,1.5,0,0,0,1.5,1.5h27.6a1.5,1.5,0,0,0,1.5-1.5V275.729a1.469,1.469,0,0,0-.113-.571Z" transform="translate(-407.883 -258.21)" fill="#e6e6e6"/>
    <path id="Path_81560" data-name="Path 81560" d="M629.616,317.051h-25.79c-.372,0-.663-.407-.663-.926V283.74c0-.519.292-.926.663-.926h25.79c.372,0,.663.407.663.926v32.386C630.278,316.645,629.987,317.051,629.616,317.051Z" transform="translate(-415.031 -265.084)" fill="#fff"/>
    <path id="Path_336-2" data-name="Path 336" d="M624.715,275.158a1.512,1.512,0,0,0-1.383-.925h-27.6a1.5,1.5,0,0,0-1.5,1.5v34.912a1.5,1.5,0,0,0,1.5,1.5h27.6a1.5,1.5,0,0,0,1.5-1.5V275.729a1.469,1.469,0,0,0-.113-.571Zm-.219,35.483a1.165,1.165,0,0,1-1.164,1.164h-27.6a1.164,1.164,0,0,1-1.164-1.163V275.729a1.165,1.165,0,0,1,1.164-1.164h27.6a1.17,1.17,0,0,1,1.08.732,1.291,1.291,0,0,1,.044.131,1.153,1.153,0,0,1,.04.3Z" transform="translate(-407.883 -258.21)" fill="#3f3d56"/>
    <path id="Path_337" data-name="Path 337" d="M682.333,310.312h-8.312a.665.665,0,1,1,0-1.33h8.313a.665.665,0,1,1,0,1.33Z" transform="translate(-471.261 -286.046)" fill="#3f3d56"/>
    <path id="Path_338" data-name="Path 338" d="M682.333,327.862h-8.312a.665.665,0,1,1,0-1.33h8.313a.665.665,0,1,1,0,1.33Z" transform="translate(-471.261 -300.105)" fill="#3f3d56"/>
    <path id="Path_339" data-name="Path 339" d="M627.784,308.318h-6.075a.749.749,0,0,1-.748-.748V300.4a.749.749,0,0,1,.748-.748h6.075a.749.749,0,0,1,.748.748v7.169A.749.749,0,0,1,627.784,308.318Z" transform="translate(-429.289 -278.573)" fill="#1b34fb"/>
    <path id="Path_340" data-name="Path 340" d="M639.867,363.8H621.081a.665.665,0,1,1,0-1.33h18.786a.665.665,0,1,1,0,1.33Z" transform="translate(-428.852 -328.892)" fill="#e6e6e6"/>
    <path id="Path_341" data-name="Path 341" d="M639.86,381.348H621.074a.665.665,0,0,1,0-1.33h18.79a.665.665,0,0,1,0,1.33Z" transform="translate(-428.845 -342.951)" fill="#e6e6e6"/>
    <path id="Path_342" data-name="Path 342" d="M639.867,398.9H621.081a.665.665,0,1,1,0-1.33h18.786a.665.665,0,1,1,0,1.33Z" transform="translate(-428.852 -357.009)" fill="#e6e6e6"/>
    <path id="Path_343" data-name="Path 343" d="M639.86,416.448H621.074a.665.665,0,0,1,0-1.33h18.79a.665.665,0,0,1,0,1.33Z" transform="translate(-428.845 -371.068)" fill="#e6e6e6"/>
    <path id="Path_344" data-name="Path 344" d="M639.86,434H621.074a.665.665,0,0,1,0-1.33h18.79a.665.665,0,0,1,0,1.33Z" transform="translate(-428.845 -385.127)" fill="#e6e6e6"/>
    <circle id="Ellipse_44" data-name="Ellipse 44" cx="10.742" cy="10.742" r="10.742" transform="translate(209.539 2.711)" fill="#1b34fb"/>
    <path id="Path_692" data-name="Path 692" d="M755.253,239.24v-5.926H752.2v5.926h-1.425l1.475,2.555,1.476,2.556L755.2,241.8l1.475-2.556Z" transform="translate(-533.279 -225.431)" fill="#fff"/>
    <path id="Path_694" data-name="Path 694" d="M714.228,649.509c-1.91,1.376-4.384,1.445-6.776,1.276-.334-.023-.666-.051-.995-.081h-.007l-.047,0-.2-.02.016.03.05.094-.054-.094-.016-.028a9.48,9.48,0,0,1-1.391-3.427,3.341,3.341,0,0,1,1.418-3.353,2.273,2.273,0,0,1,.466-.2q.1-.03.2-.052a2.433,2.433,0,0,1,2.829,3.163c.954-.978.776-2.564.447-3.89s-.729-2.8-.058-3.992a2.633,2.633,0,0,1,1.764-1.24l.068-.014a3.551,3.551,0,0,1,2.551.447,5.839,5.839,0,0,1,2.363,4.212A7.542,7.542,0,0,1,714.228,649.509Z" transform="translate(-491.456 -593.561)" fill="#f2f2f2"/>
  </g>
</svg>
