<svg xmlns="http://www.w3.org/2000/svg" width="61.871" height="57.764" viewBox="0 0 61.871 57.764">
  <g id="undraw_resume_re_hkth" transform="translate(-0.003 -0.003)">
    <path id="Path_81561" data-name="Path 81561" d="M252.235,98.571,250.341,99.6,227.016,112.33l-1.893,1.033a3.954,3.954,0,0,0-1.575,5.359l17.37,31.835a3.954,3.954,0,0,0,5.359,1.575l0,0,27.1-14.788,0,0a3.954,3.954,0,0,0,1.575-5.359l-17.37-31.835A3.954,3.954,0,0,0,252.235,98.571Z" transform="translate(-223.063 -98.086)" fill="#f2f2f2"/>
    <path id="Path_81562" data-name="Path 81562" d="M265.494,112.283l-2.242,1.224-22.627,12.346-2.242,1.224a2.816,2.816,0,0,0-1.122,3.816l17.37,31.835a2.816,2.816,0,0,0,3.816,1.122l0,0,27.1-14.788,0,0a2.816,2.816,0,0,0,1.122-3.816L269.31,113.4A2.816,2.816,0,0,0,265.494,112.283Z" transform="translate(-235.777 -110.8)" fill="#fff"/>
    <path id="Path_81563" data-name="Path 81563" d="M465.732,222.706l-10.108,5.515a.658.658,0,1,1-.63-1.155l10.108-5.515a.658.658,0,0,1,.63,1.155Z" transform="translate(-435.641 -211.342)" fill="#f2f2f2"/>
    <path id="Path_81564" data-name="Path 81564" d="M481.069,230.615l-12.49,6.815a.658.658,0,1,1-.63-1.155l12.49-6.815a.658.658,0,0,1,.63,1.155Z" transform="translate(-447.533 -218.602)" fill="#f2f2f2"/>
    <path id="Path_81565" data-name="Path 81565" d="M309.806,275.317l-9.319,5.085a.315.315,0,0,0-.126.428l3.968,7.273a.315.315,0,0,0,.428.126l9.319-5.085a.315.315,0,0,0,.126-.428l-3.968-7.273A.315.315,0,0,0,309.806,275.317Z" transform="translate(-293.979 -260.733)" fill="#f2f2f2"/>
    <path id="Path_81566" data-name="Path 81566" d="M486.552,335.148l-13.71,7.481a.658.658,0,0,1-.63-1.155l13.71-7.481a.658.658,0,1,1,.63,1.155Z" transform="translate(-451.446 -314.555)" fill="#f2f2f2"/>
    <path id="Path_81567" data-name="Path 81567" d="M501.889,343.057l-16.092,8.78a.658.658,0,1,1-.63-1.155l16.092-8.78a.658.658,0,1,1,.63,1.155Z" transform="translate(-463.338 -321.815)" fill="#f2f2f2"/>
    <circle id="Ellipse_2439" data-name="Ellipse 2439" cx="2.79" cy="2.79" r="2.79" transform="translate(13.384 28.619)" fill="#f2f2f2"/>
    <path id="Path_81568" data-name="Path 81568" d="M539.2,263.788H508.319a3.954,3.954,0,0,0-3.95,3.95V304a3.954,3.954,0,0,0,3.95,3.95H539.2a3.954,3.954,0,0,0,3.95-3.95V267.738a3.954,3.954,0,0,0-3.95-3.95Z" transform="translate(-481.279 -250.186)" fill="#a8a8a8"/>
    <path id="Path_81569" data-name="Path 81569" d="M551.921,277.642H521.036a2.816,2.816,0,0,0-2.813,2.813V316.72a2.816,2.816,0,0,0,2.813,2.813h30.885a2.816,2.816,0,0,0,2.813-2.813V280.455A2.816,2.816,0,0,0,551.921,277.642Z" transform="translate(-493.996 -262.903)" fill="#fff"/>
    <path id="Path_81570" data-name="Path 81570" d="M739,370.8H727.485a.658.658,0,1,1,0-1.315H739a.658.658,0,1,1,0,1.315Z" transform="translate(-685.479 -347.211)" fill="#1b34fb"/>
    <path id="Path_81571" data-name="Path 81571" d="M741.713,397.852H727.485a.658.658,0,1,1,0-1.315h14.228a.658.658,0,0,1,0,1.315Z" transform="translate(-685.479 -372.04)" fill="#1b34fb"/>
    <path id="Path_81572" data-name="Path 81572" d="M581.533,336.711H570.917a.315.315,0,0,0-.315.315v8.285a.315.315,0,0,0,.315.315h10.616a.315.315,0,0,0,.315-.315v-8.285a.315.315,0,0,0-.315-.315Z" transform="translate(-542.076 -317.124)" fill="#e6e6e6"/>
    <path id="Path_81580" data-name="Path 81580" d="M692.892,498.779H677.274a.658.658,0,0,1,0-1.315h15.618a.658.658,0,0,1,0,1.315Z" transform="translate(-639.389 -464.683)" fill="#e6e6e6"/>
    <path id="Path_81581" data-name="Path 81581" d="M695.605,525.826H677.274a.658.658,0,1,1,0-1.315h18.332a.658.658,0,1,1,0,1.315Z" transform="translate(-639.389 -489.511)" fill="#e6e6e6"/>
    <path id="Path_81582" data-name="Path 81582" d="M692.892,595.992H677.274a.658.658,0,1,1,0-1.315h15.618a.658.658,0,1,1,0,1.315Z" transform="translate(-639.389 -553.918)" fill="#e6e6e6"/>
    <path id="Path_81583" data-name="Path 81583" d="M695.605,623.04H677.274a.658.658,0,0,1,0-1.316h18.332a.658.658,0,0,1,0,1.316Z" transform="translate(-639.389 -578.746)" fill="#e6e6e6"/>
    <circle id="Ellipse_2441" data-name="Ellipse 2441" cx="2.79" cy="2.79" r="2.79" transform="translate(28.912 31.733)" fill="#e6e6e6"/>
    <circle id="Ellipse_2442" data-name="Ellipse 2442" cx="2.79" cy="2.79" r="2.79" transform="translate(28.912 39.776)" fill="#e6e6e6"/>
    <path id="Path_81584" data-name="Path 81584" d="M692.892,693.992H677.274a.658.658,0,0,1,0-1.315h15.618a.658.658,0,0,1,0,1.315Z" transform="translate(-639.389 -643.875)" fill="#e6e6e6"/>
    <path id="Path_81585" data-name="Path 81585" d="M695.605,721.04H677.274a.658.658,0,0,1,0-1.315h18.332a.658.658,0,0,1,0,1.315Z" transform="translate(-639.389 -668.703)" fill="#e6e6e6"/>
    <circle id="Ellipse_2443" data-name="Ellipse 2443" cx="2.79" cy="2.79" r="2.79" transform="translate(28.912 47.819)" fill="#e6e6e6"/>
  </g>
</svg>
